<?xml version="1.0" standalone="no"?>
<!DOCTYPE svg PUBLIC "-//W3C//DTD SVG 20010904//EN"
 "http://www.w3.org/TR/2001/REC-SVG-20010904/DTD/svg10.dtd">
<svg version="1.0" xmlns="http://www.w3.org/2000/svg"
 width="2000.000000pt" height="2000.000000pt" viewBox="0 0 2000.000000 2000.000000"
 preserveAspectRatio="xMidYMid meet">

<g transform="translate(0.000000,2000.000000) scale(0.100000,-0.100000)"
fill="#000000" stroke="none">
<path d="M13425 16897 c-17 -13 -18 -18 -7 -41 7 -15 12 -39 12 -54 0 -37 -90
-172 -143 -215 -70 -57 -80 -60 -142 -41 -31 8 -91 17 -133 19 -42 1 -80 3
-84 4 -4 0 -19 24 -34 52 -29 57 -43 152 -25 163 6 4 11 16 11 26 0 36 -64 38
-117 4 -31 -19 -29 -36 6 -55 23 -13 31 -28 40 -68 16 -78 14 -135 -6 -153
-10 -9 -40 -27 -68 -41 -27 -14 -76 -45 -107 -70 -56 -44 -57 -44 -110 -36
-56 9 -193 72 -242 112 -21 17 -31 35 -35 68 -8 57 -34 63 -84 20 -43 -38 -67
-87 -67 -135 0 -41 21 -56 51 -38 32 20 73 13 135 -24 71 -43 127 -94 165
-152 27 -42 27 -45 13 -90 -7 -26 -16 -87 -19 -136 -3 -49 -8 -93 -11 -98 -9
-14 -80 -47 -125 -57 -35 -8 -48 -7 -71 7 -25 15 -30 15 -38 2 -14 -21 -12
-45 4 -85 17 -41 46 -46 61 -12 13 29 75 49 144 45 l56 -3 38 -70 c21 -38 57
-92 79 -119 l41 -48 -12 -67 c-14 -77 -70 -195 -117 -246 -25 -27 -39 -35 -67
-35 -103 0 -48 -114 76 -156 60 -20 93 -6 82 34 -18 74 -17 86 22 151 44 75
138 172 183 191 24 10 40 10 69 1 21 -6 73 -14 116 -18 76 -6 78 -7 106 -46
36 -50 69 -138 76 -203 5 -43 2 -56 -17 -82 -13 -17 -20 -37 -17 -46 15 -37
132 -27 182 17 32 27 26 48 -18 68 -45 20 -70 94 -71 215 -1 104 2 109 77 152
29 16 76 51 105 77 50 45 54 47 97 40 53 -7 148 -55 188 -93 16 -16 27 -36 27
-53 0 -44 27 -44 70 -1 25 24 41 51 45 76 10 49 -3 62 -46 47 -27 -9 -39 -8
-78 12 -25 12 -72 47 -103 77 -61 59 -69 81 -47 137 6 15 16 69 22 118 l12 90
48 32 c64 43 150 74 222 80 52 5 63 2 79 -16 38 -42 76 -17 76 52 0 70 -43
147 -81 147 -10 0 -21 -10 -24 -22 -13 -43 -45 -66 -117 -83 -91 -23 -228 -17
-258 10 -11 10 -20 23 -20 29 0 6 -25 44 -56 85 -56 73 -56 74 -51 129 7 63
58 175 107 234 23 28 39 38 67 40 75 6 66 67 -19 120 -55 35 -97 44 -123 25z"/>
<path d="M15724 16106 c-153 -57 -368 -243 -493 -427 -71 -105 -97 -179 -151
-433 -37 -176 -70 -283 -149 -494 -59 -159 -88 -331 -97 -582 -9 -261 -8 -262
207 -203 79 23 290 75 469 118 179 43 348 88 375 101 31 15 60 38 75 60 22 33
25 48 25 128 0 50 -6 154 -14 231 -15 155 -10 269 30 587 11 93 19 171 16 174
-2 2 -27 -1 -55 -7 l-51 -12 6 -61 c3 -40 0 -82 -11 -122 -22 -87 -21 -121 9
-156 14 -16 25 -34 25 -40 0 -5 -16 9 -35 32 -19 23 -35 47 -35 52 0 6 -16
-10 -35 -35 -19 -25 -57 -60 -84 -77 l-50 -33 29 -36 c55 -68 80 -167 63 -246
-8 -36 -9 -31 -9 36 -1 63 -6 87 -27 131 -15 30 -37 64 -49 76 l-23 21 -1 -39
c-1 -32 -10 -49 -42 -84 -23 -25 -44 -56 -48 -70 -10 -43 5 -92 41 -136 35
-42 51 -77 41 -87 -3 -4 -6 1 -6 10 0 9 -16 34 -35 55 -65 73 -74 152 -26 220
16 22 34 43 40 47 6 3 11 24 11 47 0 35 -2 39 -17 32 -10 -4 -58 -9 -108 -10
l-90 -3 -9 -71 c-9 -70 -8 -73 27 -144 47 -93 52 -121 37 -200 -14 -77 -9 -92
58 -154 l47 -44 -48 32 c-73 48 -83 69 -79 173 3 84 1 91 -30 145 l-32 57 -14
-50 c-45 -170 -97 -249 -199 -297 -35 -17 -75 -44 -88 -60 -14 -16 -25 -26
-25 -21 0 17 75 82 111 97 66 27 122 102 149 197 l8 27 -40 -14 c-22 -8 -58
-14 -79 -14 -33 0 -43 -6 -74 -45 -43 -52 -85 -68 -160 -63 l-50 4 60 2 c70 2
116 26 140 71 18 37 43 51 87 51 49 1 116 35 128 64 5 14 15 82 23 150 l13
124 -44 21 c-24 12 -46 21 -47 19 -1 -2 -19 -37 -38 -78 -46 -97 -48 -99 -147
-160 -47 -29 -90 -59 -96 -68 -7 -10 -20 -26 -29 -37 -15 -19 -15 -18 -1 10
18 37 45 63 116 108 70 44 94 70 120 130 23 53 22 64 -7 49 -10 -5 -34 -12
-54 -16 -21 -4 -48 -15 -60 -25 -47 -36 -75 -44 -35 -10 47 41 76 58 97 59 8
0 36 13 61 29 l46 30 -39 41 c-48 50 -75 101 -95 182 -42 164 48 356 201 430
33 16 44 26 39 38 -4 8 -8 26 -10 40 -3 20 -2 21 4 5 18 -49 24 -52 94 -47 63
4 67 5 57 24 -6 11 -9 22 -6 24 2 2 10 -7 17 -21 9 -17 22 -25 39 -25 41 -1
137 -44 195 -89 29 -23 56 -41 61 -41 19 0 -6 86 -37 129 -30 42 -34 54 -39
136 -3 50 -9 99 -14 110 -6 16 -6 18 6 7 8 -7 15 -45 19 -100 5 -82 8 -91 48
-151 34 -51 42 -72 42 -110 1 -33 7 -54 25 -75 l24 -30 58 36 58 36 8 139 c11
180 -2 323 -37 398 -21 46 -33 59 -68 75 -58 26 -137 25 -214 -4z m17 -183
c13 -16 12 -17 -3 -4 -17 13 -22 21 -14 21 2 0 10 -8 17 -17z"/>
<path d="M16463 16109 c-34 -16 -48 -33 -70 -77 l-28 -57 0 -231 c0 -261 -2
-254 79 -293 39 -19 205 -71 226 -71 6 0 10 37 10 89 0 93 3 85 -65 177 -12
17 -13 27 -5 48 5 15 10 54 10 87 0 53 20 129 34 129 3 0 -2 -17 -11 -37 -10
-24 -13 -55 -10 -87 2 -27 0 -65 -5 -83 -8 -30 -6 -37 33 -82 l42 -49 61 27
c40 18 69 39 84 61 12 18 22 29 22 24 0 -25 -64 -93 -88 -94 -8 0 -27 -13 -43
-29 -24 -25 -29 -37 -28 -78 1 -107 10 -130 62 -163 26 -16 51 -30 55 -30 4 0
28 24 54 54 46 52 46 53 42 112 -5 57 -3 62 45 144 61 102 66 96 11 -11 -39
-76 -46 -110 -34 -156 6 -20 11 -22 44 -17 27 5 47 1 69 -12 17 -10 31 -21 31
-25 0 -4 14 -12 30 -19 28 -12 54 -10 105 4 11 4 7 0 -10 -8 -49 -24 -92 -20
-140 15 -60 43 -89 35 -160 -44 -30 -34 -55 -65 -55 -68 0 -4 15 -29 34 -57
18 -27 41 -70 52 -95 13 -31 29 -50 53 -63 20 -11 49 -31 66 -46 29 -25 124
-52 150 -42 6 3 19 20 29 39 10 18 26 37 34 40 13 5 13 3 -1 -13 -9 -10 -17
-23 -17 -29 0 -6 -9 -22 -21 -37 -16 -20 -29 -26 -59 -26 l-39 0 19 -42 c10
-24 22 -61 26 -83 11 -64 19 -72 76 -80 50 -7 133 -34 126 -41 -2 -2 -22 3
-43 11 -22 8 -59 14 -83 15 -65 0 -79 12 -101 88 -26 85 -57 131 -117 171 -52
34 -69 39 -60 16 3 -8 13 -86 21 -173 22 -213 22 -213 75 -239 24 -13 59 -23
78 -23 45 0 66 -13 92 -55 29 -47 66 -65 142 -67 l63 -2 -55 -4 c-79 -5 -119
10 -163 63 -33 40 -43 45 -78 45 -22 0 -55 7 -74 14 -19 8 -35 13 -35 10 0
-16 30 -56 82 -111 62 -65 97 -129 98 -176 0 -28 39 -77 61 -77 7 0 10 -3 7
-6 -13 -13 -68 27 -73 54 -19 89 -28 106 -106 186 -81 85 -112 138 -124 214
l-7 44 -30 -29 c-50 -47 -61 -79 -53 -147 4 -34 10 -95 14 -137 6 -74 8 -78
54 -127 26 -28 47 -54 47 -58 0 -4 -25 19 -55 51 -56 59 -71 89 -62 126 3 11
-3 50 -14 87 -34 119 -23 166 61 257 l28 30 -14 100 c-7 55 -25 137 -40 183
-22 70 -30 82 -48 82 -12 0 -31 -6 -41 -14 -19 -14 -19 -15 -2 -33 24 -28 21
-74 -8 -114 -14 -19 -32 -49 -41 -68 -15 -33 -14 -37 15 -112 38 -95 38 -112
5 -175 -15 -27 -30 -71 -34 -99 l-7 -50 -2 43 c-1 31 7 57 26 89 34 58 34 111
-1 183 -36 76 -34 114 9 180 39 61 43 81 18 106 -17 16 -18 15 -35 -22 -10
-21 -18 -49 -18 -62 0 -31 -27 -83 -54 -105 -11 -9 -40 -27 -64 -39 -24 -12
-59 -39 -78 -60 -38 -43 -45 -41 -13 3 11 16 47 47 79 69 71 48 100 83 100
121 0 77 54 168 113 192 l29 12 -40 45 c-41 47 -128 104 -174 115 -36 9 -44
-9 -52 -121 -6 -85 -5 -94 19 -135 37 -65 30 -72 -10 -9 -19 30 -35 64 -35 77
0 13 -4 23 -9 23 -16 0 -41 -43 -41 -71 0 -16 -14 -44 -35 -69 -19 -23 -35
-37 -35 -32 0 6 12 24 26 41 16 19 28 48 31 74 3 29 13 49 33 67 25 23 28 33
32 102 l3 78 -35 6 c-19 3 -64 12 -99 20 -35 8 -65 13 -67 11 -2 -1 8 -92 21
-202 37 -311 40 -424 20 -626 -23 -221 -18 -259 38 -315 50 -50 52 -50 477
-151 173 -41 368 -90 433 -109 143 -41 161 -42 183 -9 15 23 16 49 11 213 -9
281 -41 454 -119 647 -54 134 -82 225 -113 375 -75 352 -105 427 -233 581
-225 272 -490 412 -639 338z m326 -1709 c11 -24 11 -24 -3 -6 -9 11 -16 24
-16 30 0 12 5 7 19 -24z m586 -230 c14 -7 8 -8 -20 -3 -22 3 -42 7 -44 9 -9 8
45 2 64 -6z"/>
<path d="M15437 15604 c-3 -3 4 -21 15 -40 11 -19 18 -37 15 -40 -3 -3 -15 13
-27 35 l-20 41 -43 -21 c-100 -51 -161 -125 -192 -233 -32 -111 4 -252 85
-331 l38 -37 40 26 c53 33 69 15 22 -24 l-34 -28 32 -16 c41 -21 40 -21 48 19
3 19 10 37 14 40 11 7 23 -24 24 -60 l1 -30 80 0 c44 0 88 3 98 7 17 7 16 11
-9 43 -37 49 -22 57 24 12 l37 -36 33 20 c17 12 32 28 32 36 0 8 4 12 9 9 9
-6 72 58 91 94 9 16 9 25 -1 36 -17 20 -26 17 -26 -9 0 -20 -48 -107 -59 -107
-2 0 6 21 19 48 22 44 24 56 19 180 -4 125 -5 133 -23 129 -10 -3 -19 -2 -19
2 0 9 46 31 65 31 27 0 27 22 -2 62 -31 47 -64 68 -173 115 -59 26 -88 33
-141 33 -36 0 -68 -3 -72 -6z m339 -272 c-17 -16 -18 -16 -5 5 7 12 15 20 18
17 3 -2 -3 -12 -13 -22z"/>
<path d="M15825 15304 c-8 -20 -15 -56 -15 -80 0 -36 5 -46 29 -63 24 -18 30
-18 35 -6 11 30 18 115 12 149 -9 50 -40 49 -61 0z"/>
<path d="M4960 14425 c-118 -34 -138 -101 -45 -156 59 -35 68 -70 62 -248 -5
-173 -19 -238 -70 -341 -36 -72 -42 -76 -167 -115 -47 -15 -123 -47 -169 -73
-83 -44 -86 -45 -130 -33 -115 31 -244 114 -368 239 -104 105 -120 137 -101
209 21 84 -23 121 -108 88 -132 -50 -246 -216 -204 -295 11 -21 16 -22 88 -15
75 6 78 5 124 -25 52 -34 147 -132 207 -213 52 -70 87 -135 111 -208 l21 -60
-60 -122 c-40 -82 -68 -156 -85 -225 -13 -57 -32 -112 -42 -123 -36 -40 -197
-70 -313 -59 -47 5 -58 11 -85 43 -17 20 -38 37 -47 37 -44 0 -80 -112 -60
-187 24 -87 68 -105 104 -43 23 38 50 45 164 44 112 -2 226 -33 247 -67 7 -12
19 -51 26 -87 16 -84 57 -197 108 -293 37 -70 39 -80 30 -114 -33 -119 -100
-224 -228 -357 -119 -123 -132 -130 -225 -121 -60 5 -75 4 -89 -10 -76 -76
131 -324 261 -313 51 4 63 29 50 102 -8 42 -7 62 4 88 19 46 180 204 267 262
81 54 194 105 231 106 13 0 74 -25 135 -55 63 -31 148 -64 196 -75 164 -40
162 -39 184 -95 19 -52 34 -231 22 -279 -3 -14 -19 -33 -36 -42 -53 -32 -50
-64 11 -88 70 -28 162 -15 198 28 13 16 10 21 -27 56 l-42 38 0 103 c1 80 6
119 23 169 25 73 16 68 187 110 47 11 132 43 189 71 122 60 149 61 254 11 98
-45 182 -106 284 -205 113 -109 140 -158 124 -222 -21 -85 -6 -115 57 -115 99
1 238 121 272 237 26 87 -9 121 -104 101 -72 -16 -100 -2 -201 93 -127 121
-220 261 -261 391 l-17 57 51 103 c28 57 63 143 77 192 14 49 30 95 35 101 17
21 127 65 197 80 78 17 309 20 347 5 14 -5 38 -27 53 -49 52 -74 97 -71 135 8
30 63 31 186 1 253 -36 80 -85 87 -129 16 -36 -56 -72 -68 -204 -68 -155 0
-332 40 -389 88 -13 10 -31 53 -46 107 -29 99 -67 188 -120 275 -19 32 -35 69
-35 83 0 50 80 184 163 273 100 106 121 118 198 109 56 -7 59 -6 70 18 15 32
8 60 -30 118 -33 53 -85 96 -137 114 -69 23 -99 -5 -85 -81 4 -22 4 -50 0 -62
-14 -37 -150 -167 -224 -214 -128 -81 -168 -88 -240 -38 -61 42 -161 87 -259
116 -93 28 -108 39 -142 111 -42 89 -65 219 -65 365 1 148 12 185 68 219 19
12 41 32 50 45 14 22 14 26 -2 50 -38 59 -188 89 -295 59z"/>
<path d="M9312 14341 c-119 -41 -208 -132 -249 -251 -26 -79 -24 -286 4 -391
l20 -76 -89 29 c-182 58 -351 60 -472 5 -181 -83 -271 -362 -179 -558 16 -36
60 -109 96 -162 37 -54 67 -104 67 -113 0 -31 -46 -61 -129 -83 -113 -31 -162
-53 -210 -96 -56 -51 -75 -106 -69 -200 4 -63 12 -90 52 -171 78 -162 236
-378 446 -612 75 -83 97 -102 114 -98 11 3 51 8 87 12 37 4 72 9 77 13 7 4 4
33 -8 84 -10 43 -23 126 -29 185 -27 267 49 445 222 520 80 35 182 -2 270 -97
42 -46 61 -60 70 -53 7 6 109 130 227 276 210 258 216 265 258 272 72 11 214
-21 487 -110 644 -210 846 -254 1105 -243 174 8 253 26 370 83 77 38 109 61
170 123 73 74 148 190 135 211 -13 21 -31 7 -65 -51 -73 -128 -211 -236 -361
-284 -256 -81 -555 -42 -1163 150 -116 36 -230 71 -253 77 -24 6 -42 13 -39
15 2 3 96 -20 208 -51 370 -100 509 -133 740 -172 353 -60 545 -21 722 146
191 180 296 460 296 788 0 266 -58 408 -195 480 -80 41 -187 36 -450 -21 -337
-74 -502 -82 -745 -35 -192 36 -352 94 -775 281 -359 158 -483 197 -630 197
-51 -1 -99 -7 -133 -19z"/>
<path d="M9162 12097 c2 -44 -1 -73 -6 -69 -5 3 -7 -1 -4 -10 4 -8 0 -15 -8
-15 -7 0 -11 4 -8 9 8 12 -35 78 -50 78 -25 0 -25 -13 1 -46 14 -19 23 -34 20
-34 -2 0 0 -21 4 -47 8 -40 6 -52 -16 -89 -14 -23 -32 -50 -41 -59 -19 -18 -5
-43 16 -30 25 16 98 143 108 190 16 67 11 187 -6 193 -11 3 -13 -12 -10 -71z"/>
<path d="M10235 12160 c-4 -6 11 -28 33 -50 77 -72 210 -120 337 -120 77 0
165 21 185 45 22 27 1 34 -47 15 -143 -53 -342 -16 -460 85 -26 22 -44 31 -48
25z"/>
<path d="M10920 12036 c0 -19 41 -61 81 -82 50 -26 212 -32 281 -9 67 21 118
55 118 78 0 22 -13 22 -35 -3 -29 -32 -112 -55 -200 -55 -91 0 -158 21 -195
60 -26 27 -50 33 -50 11z"/>
<path d="M10233 11973 c-7 -18 32 -54 79 -74 19 -8 27 -18 25 -31 -3 -29 50
-46 144 -47 63 -1 84 3 130 27 43 21 54 32 54 51 l0 25 -135 0 c-131 1 -137 2
-204 34 -79 37 -84 38 -93 15z m172 -108 c30 -8 40 -14 25 -14 -14 0 -38 6
-55 14 -39 17 -32 17 30 0z"/>
<path d="M10997 11893 c-15 -14 -5 -43 22 -66 67 -56 170 -87 245 -73 57 11
42 26 -26 27 l-63 1 64 10 c78 11 144 42 139 66 -4 19 -29 20 -96 3 -47 -12
-126 -3 -203 24 -45 16 -72 19 -82 8z"/>
<path d="M10852 11395 c9 -10 21 -16 28 -13 7 2 -1 10 -16 17 -27 12 -28 11
-12 -4z"/>
<path d="M10975 11389 c-11 -4 -32 -8 -47 -8 -16 -1 -28 -6 -28 -11 0 -14 64
-9 86 7 22 16 16 23 -11 12z"/>
<path d="M9073 11247 c4 -10 7 -21 7 -23 0 -3 6 -2 13 2 9 5 9 4 1 -5 -12 -13
-7 -54 5 -47 3 2 7 -8 7 -22 1 -15 9 -45 19 -67 10 -22 19 -42 19 -45 4 -17
51 -127 60 -139 5 -7 11 -18 12 -25 1 -6 19 -40 40 -75 22 -35 47 -78 57 -95
41 -69 69 -99 79 -85 7 11 8 9 4 -4 -5 -14 17 -42 87 -111 113 -113 179 -160
210 -151 16 5 18 4 8 -3 -11 -8 -5 -15 26 -31 22 -11 43 -17 47 -14 3 4 6 1 6
-6 0 -8 6 -11 16 -7 8 3 13 2 10 -2 -5 -9 62 -37 70 -29 3 2 0 33 -6 68 -7 35
-12 79 -12 97 -1 24 -9 38 -28 52 -15 11 -30 16 -34 12 -4 -4 -6 0 -4 8 2 9
-4 14 -14 14 -10 -1 -16 2 -13 6 3 5 -14 23 -37 41 -24 19 -45 36 -48 39 -40
42 -103 89 -112 84 -6 -4 -8 -3 -5 3 8 13 -27 46 -38 36 -4 -5 -5 -3 -2 3 3 6
-15 31 -41 55 -25 24 -38 33 -27 19 l20 -25 -22 19 c-12 10 -22 21 -21 25 2
22 -4 32 -18 27 -9 -3 -12 -2 -8 5 7 13 -33 59 -50 55 -6 -2 -7 -1 -3 2 4 2 2
10 -4 18 -10 12 -14 12 -21 2 -7 -10 -8 -10 -7 2 3 31 -1 42 -16 37 -8 -4 -17
-1 -21 5 -4 7 -3 8 4 4 26 -16 9 11 -46 73 -32 36 -61 74 -65 84 -4 11 -12 15
-19 11 -7 -4 -10 -4 -6 1 7 8 -44 86 -71 108 -12 10 -14 9 -8 -6z m420 -704
c-7 -2 -13 -9 -13 -15 0 -6 7 -8 15 -5 8 4 16 3 19 -1 3 -4 -4 -8 -14 -9 -11
-1 -22 2 -25 8 -8 12 3 29 18 28 9 0 9 -2 0 -6z m252 -213 c3 -6 -1 -7 -9 -4
-18 7 -21 14 -7 14 6 0 13 -4 16 -10z"/>
<path d="M17565 11242 c-31 -7 -35 -22 -18 -64 15 -37 14 -40 -13 -93 -32 -64
-119 -164 -170 -195 -34 -22 -36 -22 -99 -6 -35 9 -96 16 -135 16 -83 0 -97
10 -129 94 -25 67 -27 105 -6 132 20 26 19 33 -9 44 -29 11 -88 -3 -112 -27
-15 -15 -14 -19 15 -42 17 -14 36 -42 41 -61 12 -41 15 -143 5 -159 -3 -7 -35
-25 -70 -42 -34 -17 -86 -51 -114 -76 -48 -42 -55 -45 -93 -39 -67 11 -147 43
-214 87 -63 41 -69 48 -78 103 -8 43 -20 51 -56 36 -51 -21 -100 -100 -100
-162 0 -37 20 -44 72 -27 38 12 43 11 96 -17 64 -34 162 -120 193 -170 21 -34
21 -37 5 -93 -9 -31 -16 -94 -16 -139 0 -82 0 -82 -32 -102 -18 -11 -58 -28
-88 -37 -51 -15 -57 -15 -84 1 -42 24 -56 3 -43 -66 5 -21 16 -42 27 -48 16
-9 22 -6 34 19 13 23 26 31 66 40 76 16 124 14 143 -7 10 -10 17 -22 17 -27 0
-14 88 -150 109 -169 28 -26 27 -83 -3 -169 -31 -85 -101 -195 -130 -203 -29
-7 -58 -12 -73 -13 -8 -1 -13 -14 -13 -31 0 -59 122 -142 185 -126 28 7 32 30
14 81 -11 28 -8 38 20 92 41 77 120 166 176 198 42 25 43 25 106 10 35 -8 86
-15 112 -15 37 0 53 -5 72 -24 35 -35 74 -118 92 -197 15 -68 15 -72 -4 -97
-32 -45 -34 -50 -17 -66 37 -38 185 2 192 51 3 17 -5 26 -32 37 -49 21 -76 98
-77 220 -1 96 7 114 61 141 27 13 78 50 115 81 61 52 68 56 103 49 48 -9 151
-59 185 -91 18 -16 27 -35 27 -55 0 -37 22 -47 56 -25 35 23 64 75 64 113 0
40 -8 45 -53 31 -33 -10 -41 -8 -93 23 -63 38 -144 122 -144 149 0 10 7 37 15
60 8 24 18 75 21 114 8 84 22 105 105 146 58 30 160 60 202 60 13 0 36 -9 50
-20 28 -22 62 -26 73 -9 12 19 7 103 -8 139 -31 74 -71 90 -93 37 -8 -19 -20
-39 -27 -45 -43 -35 -258 -57 -321 -33 -14 6 -34 25 -43 43 -9 18 -39 61 -65
95 -27 35 -49 73 -49 85 0 65 58 203 113 272 18 22 35 31 68 35 35 5 45 10 47
28 8 57 -105 139 -173 125z"/>
<path d="M10575 11112 c-141 -86 -151 -255 -23 -379 53 -51 130 -88 218 -104
82 -14 135 -6 155 24 8 13 19 56 25 96 14 101 19 116 57 196 18 38 33 78 33
89 0 18 -1 18 -18 3 -10 -10 -35 -17 -54 -17 -47 0 -191 42 -275 80 -77 35
-79 35 -118 12z"/>
<path d="M12862 10723 c-22 -21 -44 -49 -47 -63 -5 -18 1 -13 19 16 14 23 41
51 58 63 18 11 28 21 22 21 -6 0 -30 -17 -52 -37z"/>
<path d="M10541 10661 c13 -11 26 -17 29 -14 6 6 -30 33 -43 33 -5 0 1 -9 14
-19z"/>
<path d="M12526 10646 c-31 -32 -64 -101 -54 -112 3 -2 10 13 16 33 11 37 37
69 77 98 11 8 15 15 8 15 -7 0 -28 -15 -47 -34z"/>
<path d="M12610 10672 c0 -5 10 -13 23 -19 40 -19 227 -173 238 -197 9 -18 6
-34 -10 -73 -24 -53 -60 -82 -121 -94 -32 -6 -32 -7 -7 -8 16 0 37 4 48 9 15
9 20 7 25 -7 10 -31 20 -47 35 -51 11 -4 10 -1 -2 14 -25 29 -32 61 -15 67 19
7 66 99 66 127 0 12 -18 38 -39 58 -38 36 -39 39 -34 86 5 38 3 47 -6 41 -8
-4 -11 -20 -9 -37 7 -42 -7 -44 -55 -5 -64 52 -137 99 -137 89z"/>
<path d="M10580 10642 c0 -6 11 -17 25 -26 14 -9 25 -13 25 -9 -1 12 -50 46
-50 35z"/>
<path d="M10640 10600 c0 -6 5 -8 10 -5 6 3 10 2 10 -4 0 -9 9 -13 62 -29 42
-12 157 -7 170 7 11 11 8 12 -17 7 -61 -14 -140 -3 -217 29 -11 4 -18 3 -18
-5z"/>
<path d="M13102 10570 c-29 -4 -56 -11 -60 -15 -7 -7 68 2 128 15 46 11 4 10
-68 0z"/>
<path d="M13228 10573 c12 -2 32 -2 45 0 12 2 2 4 -23 4 -25 0 -35 -2 -22 -4z"/>
<path d="M13006 10544 c-22 -21 -20 -27 4 -12 11 7 20 16 20 20 0 12 -7 10
-24 -8z"/>
<path d="M12962 10448 c-24 -79 -35 -128 -28 -128 3 0 10 19 16 43 6 23 18 64
26 91 8 26 13 50 10 53 -2 3 -13 -24 -24 -59z"/>
<path d="M13378 10423 c12 -2 32 -2 45 0 12 2 2 4 -23 4 -25 0 -35 -2 -22 -4z"/>
<path d="M13226 10409 c-67 -11 -102 -27 -121 -55 -8 -13 -11 -24 -6 -24 5 0
12 8 15 18 8 22 55 40 154 57 42 7 61 13 42 13 -19 0 -57 -4 -84 -9z"/>
<path d="M13086 10299 c-2 -13 -12 -60 -20 -103 -9 -43 -14 -81 -11 -84 7 -7
12 12 30 112 9 48 14 91 11 93 -3 3 -7 -5 -10 -18z"/>
<path d="M12930 10302 c0 -7 0 -13 1 -14 0 -2 -4 -15 -10 -30 -6 -15 -6 -30
-2 -33 10 -6 26 73 17 82 -3 4 -6 1 -6 -5z"/>
<path d="M12868 10233 c6 -2 18 -2 25 0 6 3 1 5 -13 5 -14 0 -19 -2 -12 -5z"/>
<path d="M12921 10168 c0 -26 3 -58 9 -72 10 -27 64 -66 90 -66 8 0 -4 9 -27
20 -44 20 -47 25 -62 115 l-9 50 -1 -47z"/>
<path d="M13270 10180 c-33 -33 -26 -65 18 -87 30 -14 38 -24 40 -50 4 -36
-11 -48 -88 -69 -25 -7 -37 -13 -26 -13 34 -2 95 21 116 44 27 29 14 68 -35
96 -52 31 -45 64 8 38 15 -7 12 -3 -7 12 l-28 22 23 13 c13 7 18 13 12 14 -7
0 -22 -9 -33 -20z"/>
<path d="M13348 10123 c6 -2 18 -2 25 0 6 3 1 5 -13 5 -14 0 -19 -2 -12 -5z"/>
<path d="M13052 10075 c0 -16 2 -22 5 -12 2 9 2 23 0 30 -3 6 -5 -1 -5 -18z"/>
<path d="M13057 10014 c20 -31 70 -54 110 -53 20 1 15 4 -17 10 -31 6 -53 18
-71 39 -31 37 -46 39 -22 4z"/>
<path d="M3783 8364 c-3 -8 0 -33 7 -54 12 -35 10 -41 -21 -100 -35 -65 -125
-165 -172 -189 -24 -13 -35 -13 -75 -2 -26 7 -89 16 -140 18 l-93 6 -25 42
c-13 24 -30 68 -36 98 -11 50 -10 58 6 76 32 35 14 54 -44 49 -28 -3 -59 -13
-69 -22 -21 -19 -18 -46 5 -46 33 0 64 -106 54 -185 -5 -37 -10 -42 -76 -80
-39 -22 -91 -57 -116 -77 -26 -22 -56 -38 -70 -38 -70 0 -247 80 -290 131 -10
12 -18 34 -18 49 0 35 -24 61 -48 53 -57 -20 -121 -126 -108 -178 7 -28 23
-31 71 -14 28 11 39 9 90 -17 65 -33 164 -118 195 -169 21 -34 21 -37 6 -104
-9 -39 -16 -101 -16 -140 0 -63 -2 -71 -26 -90 -28 -22 -113 -51 -148 -51 -10
0 -27 7 -37 16 -10 9 -23 13 -30 9 -17 -11 -6 -103 15 -123 16 -16 19 -15 44
15 22 27 38 34 94 44 83 15 112 5 135 -48 18 -44 65 -117 101 -155 22 -24 24
-33 19 -87 -3 -42 -17 -86 -45 -143 -57 -116 -87 -150 -143 -157 -36 -5 -45
-10 -47 -28 -5 -34 32 -78 90 -107 95 -47 141 -29 112 43 -15 39 -15 42 6 86
48 98 155 214 221 237 8 3 40 0 69 -8 30 -8 78 -14 108 -14 43 0 57 -5 78 -25
34 -34 80 -136 95 -211 12 -61 12 -63 -14 -93 -44 -52 -13 -79 80 -68 52 6 97
34 101 64 2 16 -7 26 -35 39 -34 17 -40 26 -55 79 -18 66 -23 190 -9 228 5 14
33 37 63 54 29 17 79 54 111 82 66 58 78 59 182 12 83 -38 123 -74 127 -114 4
-45 34 -47 75 -5 65 68 60 150 -7 125 -27 -10 -37 -8 -87 18 -51 28 -153 125
-153 146 0 5 9 42 20 81 11 40 20 95 20 121 0 42 5 53 31 78 43 40 122 76 211
96 83 18 74 19 144 -32 26 -18 48 19 47 78 -1 56 -18 100 -51 130 -24 22 -45
15 -59 -22 -15 -40 -47 -58 -138 -77 -82 -17 -177 -14 -215 6 -11 6 -28 27
-39 48 -10 20 -40 63 -66 94 -46 56 -47 58 -40 109 8 60 82 213 119 248 14 13
43 27 63 30 46 8 55 36 25 79 -40 55 -164 95 -179 56z"/>
<path d="M16833 8300 c-33 -14 -38 -50 -14 -103 27 -60 26 -87 -5 -150 -79
-157 -242 -343 -346 -395 l-46 -22 -93 26 c-74 20 -126 27 -243 31 -143 6
-151 7 -173 31 -32 34 -73 124 -95 206 -25 94 -23 128 7 164 30 36 32 67 6 82
-31 16 -122 11 -166 -9 -85 -38 -98 -79 -35 -111 22 -11 46 -30 54 -43 42 -63
64 -304 32 -352 -9 -13 -56 -44 -105 -68 -106 -53 -155 -86 -239 -161 -58 -52
-67 -56 -111 -56 -111 0 -292 68 -437 163 -103 68 -117 86 -125 162 -3 36 -12
72 -19 80 -16 19 -63 19 -99 1 -99 -52 -201 -264 -157 -330 23 -36 51 -41 97
-17 56 30 99 26 177 -13 150 -75 325 -233 377 -340 l25 -51 -20 -65 c-29 -97
-40 -182 -40 -306 0 -107 -1 -111 -27 -136 -38 -37 -124 -75 -212 -94 -77 -17
-94 -14 -153 28 -70 50 -77 -154 -8 -217 27 -25 51 -15 74 30 18 34 30 43 76
59 67 23 247 34 278 17 12 -6 43 -55 71 -110 52 -106 110 -191 174 -258 38
-39 40 -44 38 -101 -3 -131 -71 -310 -178 -470 -64 -95 -102 -120 -182 -120
-128 -1 -93 -133 62 -233 102 -66 227 -77 248 -23 7 20 4 37 -12 72 -30 67
-27 106 14 187 93 185 319 415 407 415 15 0 62 -9 106 -21 43 -11 128 -23 188
-26 107 -6 110 -7 147 -40 67 -61 142 -231 173 -391 16 -87 10 -118 -34 -169
-41 -47 -38 -81 10 -106 97 -50 330 31 330 115 0 30 -12 41 -60 57 -53 18 -79
49 -100 120 -39 136 -52 278 -35 399 9 64 32 95 98 129 81 40 159 96 241 173
49 45 84 70 99 70 42 0 173 -38 228 -65 28 -15 83 -47 120 -72 73 -48 101 -90
92 -135 -7 -35 28 -72 60 -63 116 34 224 280 129 293 -12 2 -42 -4 -67 -13
-54 -21 -77 -15 -182 51 -134 83 -243 201 -243 262 0 16 9 55 20 88 26 74 50
210 50 283 1 31 6 66 13 79 16 28 106 96 170 128 114 59 341 115 400 100 15
-3 45 -22 66 -41 78 -70 131 -29 131 100 -1 147 -84 284 -158 261 -12 -4 -29
-28 -42 -62 -29 -70 -56 -89 -177 -121 -85 -23 -119 -27 -253 -27 -174 -1
-218 11 -253 69 -67 111 -120 187 -165 236 -50 55 -52 59 -52 116 0 110 57
267 149 410 74 117 96 134 177 142 99 11 115 47 57 133 -62 92 -236 170 -310
138z"/>
<path d="M3545 4894 c-11 -3 -47 -12 -79 -20 -265 -65 -493 -283 -575 -547
-33 -107 -44 -231 -32 -337 25 -201 98 -350 245 -496 79 -79 106 -98 196 -143
149 -72 206 -86 375 -86 162 0 224 13 353 75 406 193 579 673 393 1084 -74
163 -213 307 -375 386 -55 28 -128 57 -161 66 -59 16 -298 28 -340 18z m291
-23 c376 -78 644 -406 644 -788 0 -233 -88 -437 -255 -590 -111 -103 -215
-159 -366 -200 -87 -23 -281 -23 -368 0 -163 44 -265 102 -382 217 -161 159
-239 344 -239 570 0 235 86 431 262 595 189 175 451 248 704 196z"/>
<path d="M3577 4304 c-12 -12 -37 -25 -54 -28 -26 -6 -34 -14 -42 -43 -6 -20
-21 -48 -35 -62 -36 -37 -22 -56 30 -42 59 16 135 13 206 -9 68 -21 130 -25
192 -11 56 13 61 23 31 59 -15 18 -31 47 -36 66 -8 28 -16 36 -42 41 -17 4
-42 17 -55 29 -20 17 -36 21 -98 22 -64 0 -78 -3 -97 -22z"/>
</g>
</svg>
