<svg width="0" height="0" class="hidden">
  <symbol version="1.0" xmlns="http://www.w3.org/2000/svg" preserveAspectRatio="xMidYMid meet" viewBox="0 0 2000.000000 2000.000000" id="temperature">
    <g transform="translate(0.000000,2000.000000) scale(0.100000,-0.100000)" fill="#000000" stroke="none">
      <path d="M6641 17384 c-94 -127 -181 -333 -226 -534 -33 -148 -29 -540 5 -540
10 0 65 68 102 126 115 180 194 448 205 694 6 121 -8 280 -27 310 -6 9 -22 -7
-59 -56z"></path>
      <path d="M5664 16908 c-25 -80 -30 -231 -10 -321 27 -119 84 -226 166 -310 44
-45 73 -68 79 -62 21 21 41 133 41 225 0 174 -53 316 -162 435 -87 95 -93 97
-114 33z"></path>
      <path d="M7431 16664 c-213 -55 -411 -299 -411 -507 l0 -49 38 7 c140 25 307
167 379 322 26 56 56 183 51 218 -3 22 -4 22 -57 9z"></path>
      <path d="M5060 15619 c-57 -16 -140 -51 -140 -59 0 -4 27 -33 60 -63 162 -150
413 -191 619 -101 l45 20 -58 57 c-64 63 -164 117 -261 142 -65 17 -210 19
-265 4z"></path>
      <path d="M17494 13823 l-91 -34 112 -292 c62 -161 201 -521 309 -802 108 -280
283 -733 387 -1005 217 -564 223 -578 247 -596 9 -7 36 -14 60 -14 54 0 92 35
92 86 0 19 -102 299 -244 666 -134 348 -364 946 -511 1328 -147 382 -268 696
-269 697 0 1 -42 -14 -92 -34z"></path>
      <path d="M11875 13736 c-18 -267 41 -474 154 -540 75 -43 177 -38 248 13 101
73 157 294 138 539 l-8 97 -18 -139 c-23 -182 -43 -268 -78 -341 -50 -105
-123 -149 -208 -126 -109 30 -166 162 -202 470 l-18 146 -8 -119z"></path>
      <path d="M10947 13740 c-7 -107 4 -269 24 -344 51 -188 200 -274 347 -200 86
43 141 146 162 307 11 89 13 233 3 292 -5 33 -10 15 -25 -105 -41 -326 -108
-450 -243 -450 -59 0 -98 21 -135 72 -53 72 -76 167 -118 473 l-8 60 -7 -105z"></path>
      <path d="M7603 13251 c48 -58 69 -105 65 -143 -7 -70 -95 -87 -448 -88 -491 0
-615 -30 -710 -170 -21 -30 -87 -156 -147 -280 -114 -232 -171 -322 -271 -424
-192 -197 -462 -278 -824 -248 -78 6 -143 10 -145 8 -10 -10 180 -37 297 -42
375 -18 634 97 839 375 40 54 104 168 181 325 69 139 134 256 153 278 78 83
157 98 617 118 206 9 310 19 361 35 43 14 13 -78 -48 -146 -117 -131 -424
-320 -698 -432 -176 -72 -290 -96 -355 -73 -48 16 -53 4 -7 -21 46 -25 187
-22 296 6 148 39 362 134 504 224 29 18 57 36 63 40 20 12 74 -47 74 -81 0
-138 -457 -449 -868 -590 -86 -29 -122 -36 -185 -37 -74 0 -80 2 -103 28 -28
33 -31 27 -7 -14 24 -40 65 -54 158 -53 174 2 464 111 693 261 l84 54 34 -26
c19 -14 37 -38 40 -52 25 -100 -226 -307 -591 -488 -215 -106 -332 -147 -443
-153 -75 -4 -87 -2 -114 18 -28 21 -29 21 -19 2 24 -44 56 -59 136 -61 90 -2
156 9 285 51 171 55 429 190 537 280 90 76 200 196 221 240 33 71 29 113 -12
154 -19 19 -41 34 -50 34 -27 0 -18 14 34 54 168 128 243 284 172 355 -15 15
-34 30 -42 34 -11 4 -5 14 25 39 84 69 166 153 197 202 27 41 33 62 35 109 1
55 4 61 32 78 71 43 62 116 -25 206 -42 43 -47 47 -21 14z"></path>
      <path d="M12335 7932 c-90 -72 -217 -172 -303 -239 -14 -12 -13 -16 9 -40 14
-16 68 -82 119 -148 l94 -120 -48 -355 c-26 -195 -139 -1043 -252 -1883 l-204
-1528 216 -390 c119 -214 218 -388 219 -387 2 2 91 153 198 335 171 293 194
337 192 370 -2 21 -6 191 -9 378 -4 187 -9 419 -11 515 -3 96 -10 375 -15 620
-16 725 -20 894 -25 1105 -3 110 -7 317 -10 460 -3 143 -8 371 -11 507 l-7
248 74 82 c41 46 96 107 124 136 27 29 51 57 53 62 3 9 -278 360 -288 360 -3
0 -54 -39 -115 -88z"></path>
      <path d="M4493 5332 c-12 -9 -27 -32 -34 -49 -9 -27 -8 -39 8 -70 17 -37 26
-41 288 -151 149 -63 504 -213 790 -334 286 -121 529 -222 540 -225 17 -3 25
9 56 84 l35 88 -220 93 c-122 52 -315 133 -431 182 -409 171 -791 333 -868
366 -87 38 -131 42 -164 16z"></path>
    </g>
  </symbol>
  <symbol version="1.0" xmlns="http://www.w3.org/2000/svg" preserveAspectRatio="xMidYMid meet" viewBox="0 0 2000.000000 2000.000000" id="hero_banner">
    <g transform="translate(0.000000,2000.000000) scale(0.100000,-0.100000)" fill="#000000" stroke="none">
      <path d="M13425 16897 c-17 -13 -18 -18 -7 -41 7 -15 12 -39 12 -54 0 -37 -90
-172 -143 -215 -70 -57 -80 -60 -142 -41 -31 8 -91 17 -133 19 -42 1 -80 3
-84 4 -4 0 -19 24 -34 52 -29 57 -43 152 -25 163 6 4 11 16 11 26 0 36 -64 38
-117 4 -31 -19 -29 -36 6 -55 23 -13 31 -28 40 -68 16 -78 14 -135 -6 -153
-10 -9 -40 -27 -68 -41 -27 -14 -76 -45 -107 -70 -56 -44 -57 -44 -110 -36
-56 9 -193 72 -242 112 -21 17 -31 35 -35 68 -8 57 -34 63 -84 20 -43 -38 -67
-87 -67 -135 0 -41 21 -56 51 -38 32 20 73 13 135 -24 71 -43 127 -94 165
-152 27 -42 27 -45 13 -90 -7 -26 -16 -87 -19 -136 -3 -49 -8 -93 -11 -98 -9
-14 -80 -47 -125 -57 -35 -8 -48 -7 -71 7 -25 15 -30 15 -38 2 -14 -21 -12
-45 4 -85 17 -41 46 -46 61 -12 13 29 75 49 144 45 l56 -3 38 -70 c21 -38 57
-92 79 -119 l41 -48 -12 -67 c-14 -77 -70 -195 -117 -246 -25 -27 -39 -35 -67
-35 -103 0 -48 -114 76 -156 60 -20 93 -6 82 34 -18 74 -17 86 22 151 44 75
138 172 183 191 24 10 40 10 69 1 21 -6 73 -14 116 -18 76 -6 78 -7 106 -46
36 -50 69 -138 76 -203 5 -43 2 -56 -17 -82 -13 -17 -20 -37 -17 -46 15 -37
132 -27 182 17 32 27 26 48 -18 68 -45 20 -70 94 -71 215 -1 104 2 109 77 152
29 16 76 51 105 77 50 45 54 47 97 40 53 -7 148 -55 188 -93 16 -16 27 -36 27
-53 0 -44 27 -44 70 -1 25 24 41 51 45 76 10 49 -3 62 -46 47 -27 -9 -39 -8
-78 12 -25 12 -72 47 -103 77 -61 59 -69 81 -47 137 6 15 16 69 22 118 l12 90
48 32 c64 43 150 74 222 80 52 5 63 2 79 -16 38 -42 76 -17 76 52 0 70 -43
147 -81 147 -10 0 -21 -10 -24 -22 -13 -43 -45 -66 -117 -83 -91 -23 -228 -17
-258 10 -11 10 -20 23 -20 29 0 6 -25 44 -56 85 -56 73 -56 74 -51 129 7 63
58 175 107 234 23 28 39 38 67 40 75 6 66 67 -19 120 -55 35 -97 44 -123 25z"></path>
      <path d="M15724 16106 c-153 -57 -368 -243 -493 -427 -71 -105 -97 -179 -151
-433 -37 -176 -70 -283 -149 -494 -59 -159 -88 -331 -97 -582 -9 -261 -8 -262
207 -203 79 23 290 75 469 118 179 43 348 88 375 101 31 15 60 38 75 60 22 33
25 48 25 128 0 50 -6 154 -14 231 -15 155 -10 269 30 587 11 93 19 171 16 174
-2 2 -27 -1 -55 -7 l-51 -12 6 -61 c3 -40 0 -82 -11 -122 -22 -87 -21 -121 9
-156 14 -16 25 -34 25 -40 0 -5 -16 9 -35 32 -19 23 -35 47 -35 52 0 6 -16
-10 -35 -35 -19 -25 -57 -60 -84 -77 l-50 -33 29 -36 c55 -68 80 -167 63 -246
-8 -36 -9 -31 -9 36 -1 63 -6 87 -27 131 -15 30 -37 64 -49 76 l-23 21 -1 -39
c-1 -32 -10 -49 -42 -84 -23 -25 -44 -56 -48 -70 -10 -43 5 -92 41 -136 35
-42 51 -77 41 -87 -3 -4 -6 1 -6 10 0 9 -16 34 -35 55 -65 73 -74 152 -26 220
16 22 34 43 40 47 6 3 11 24 11 47 0 35 -2 39 -17 32 -10 -4 -58 -9 -108 -10
l-90 -3 -9 -71 c-9 -70 -8 -73 27 -144 47 -93 52 -121 37 -200 -14 -77 -9 -92
58 -154 l47 -44 -48 32 c-73 48 -83 69 -79 173 3 84 1 91 -30 145 l-32 57 -14
-50 c-45 -170 -97 -249 -199 -297 -35 -17 -75 -44 -88 -60 -14 -16 -25 -26
-25 -21 0 17 75 82 111 97 66 27 122 102 149 197 l8 27 -40 -14 c-22 -8 -58
-14 -79 -14 -33 0 -43 -6 -74 -45 -43 -52 -85 -68 -160 -63 l-50 4 60 2 c70 2
116 26 140 71 18 37 43 51 87 51 49 1 116 35 128 64 5 14 15 82 23 150 l13
124 -44 21 c-24 12 -46 21 -47 19 -1 -2 -19 -37 -38 -78 -46 -97 -48 -99 -147
-160 -47 -29 -90 -59 -96 -68 -7 -10 -20 -26 -29 -37 -15 -19 -15 -18 -1 10
18 37 45 63 116 108 70 44 94 70 120 130 23 53 22 64 -7 49 -10 -5 -34 -12
-54 -16 -21 -4 -48 -15 -60 -25 -47 -36 -75 -44 -35 -10 47 41 76 58 97 59 8
0 36 13 61 29 l46 30 -39 41 c-48 50 -75 101 -95 182 -42 164 48 356 201 430
33 16 44 26 39 38 -4 8 -8 26 -10 40 -3 20 -2 21 4 5 18 -49 24 -52 94 -47 63
4 67 5 57 24 -6 11 -9 22 -6 24 2 2 10 -7 17 -21 9 -17 22 -25 39 -25 41 -1
137 -44 195 -89 29 -23 56 -41 61 -41 19 0 -6 86 -37 129 -30 42 -34 54 -39
136 -3 50 -9 99 -14 110 -6 16 -6 18 6 7 8 -7 15 -45 19 -100 5 -82 8 -91 48
-151 34 -51 42 -72 42 -110 1 -33 7 -54 25 -75 l24 -30 58 36 58 36 8 139 c11
180 -2 323 -37 398 -21 46 -33 59 -68 75 -58 26 -137 25 -214 -4z m17 -183
c13 -16 12 -17 -3 -4 -17 13 -22 21 -14 21 2 0 10 -8 17 -17z"></path>
      <path d="M16463 16109 c-34 -16 -48 -33 -70 -77 l-28 -57 0 -231 c0 -261 -2
-254 79 -293 39 -19 205 -71 226 -71 6 0 10 37 10 89 0 93 3 85 -65 177 -12
17 -13 27 -5 48 5 15 10 54 10 87 0 53 20 129 34 129 3 0 -2 -17 -11 -37 -10
-24 -13 -55 -10 -87 2 -27 0 -65 -5 -83 -8 -30 -6 -37 33 -82 l42 -49 61 27
c40 18 69 39 84 61 12 18 22 29 22 24 0 -25 -64 -93 -88 -94 -8 0 -27 -13 -43
-29 -24 -25 -29 -37 -28 -78 1 -107 10 -130 62 -163 26 -16 51 -30 55 -30 4 0
28 24 54 54 46 52 46 53 42 112 -5 57 -3 62 45 144 61 102 66 96 11 -11 -39
-76 -46 -110 -34 -156 6 -20 11 -22 44 -17 27 5 47 1 69 -12 17 -10 31 -21 31
-25 0 -4 14 -12 30 -19 28 -12 54 -10 105 4 11 4 7 0 -10 -8 -49 -24 -92 -20
-140 15 -60 43 -89 35 -160 -44 -30 -34 -55 -65 -55 -68 0 -4 15 -29 34 -57
18 -27 41 -70 52 -95 13 -31 29 -50 53 -63 20 -11 49 -31 66 -46 29 -25 124
-52 150 -42 6 3 19 20 29 39 10 18 26 37 34 40 13 5 13 3 -1 -13 -9 -10 -17
-23 -17 -29 0 -6 -9 -22 -21 -37 -16 -20 -29 -26 -59 -26 l-39 0 19 -42 c10
-24 22 -61 26 -83 11 -64 19 -72 76 -80 50 -7 133 -34 126 -41 -2 -2 -22 3
-43 11 -22 8 -59 14 -83 15 -65 0 -79 12 -101 88 -26 85 -57 131 -117 171 -52
34 -69 39 -60 16 3 -8 13 -86 21 -173 22 -213 22 -213 75 -239 24 -13 59 -23
78 -23 45 0 66 -13 92 -55 29 -47 66 -65 142 -67 l63 -2 -55 -4 c-79 -5 -119
10 -163 63 -33 40 -43 45 -78 45 -22 0 -55 7 -74 14 -19 8 -35 13 -35 10 0
-16 30 -56 82 -111 62 -65 97 -129 98 -176 0 -28 39 -77 61 -77 7 0 10 -3 7
-6 -13 -13 -68 27 -73 54 -19 89 -28 106 -106 186 -81 85 -112 138 -124 214
l-7 44 -30 -29 c-50 -47 -61 -79 -53 -147 4 -34 10 -95 14 -137 6 -74 8 -78
54 -127 26 -28 47 -54 47 -58 0 -4 -25 19 -55 51 -56 59 -71 89 -62 126 3 11
-3 50 -14 87 -34 119 -23 166 61 257 l28 30 -14 100 c-7 55 -25 137 -40 183
-22 70 -30 82 -48 82 -12 0 -31 -6 -41 -14 -19 -14 -19 -15 -2 -33 24 -28 21
-74 -8 -114 -14 -19 -32 -49 -41 -68 -15 -33 -14 -37 15 -112 38 -95 38 -112
5 -175 -15 -27 -30 -71 -34 -99 l-7 -50 -2 43 c-1 31 7 57 26 89 34 58 34 111
-1 183 -36 76 -34 114 9 180 39 61 43 81 18 106 -17 16 -18 15 -35 -22 -10
-21 -18 -49 -18 -62 0 -31 -27 -83 -54 -105 -11 -9 -40 -27 -64 -39 -24 -12
-59 -39 -78 -60 -38 -43 -45 -41 -13 3 11 16 47 47 79 69 71 48 100 83 100
121 0 77 54 168 113 192 l29 12 -40 45 c-41 47 -128 104 -174 115 -36 9 -44
-9 -52 -121 -6 -85 -5 -94 19 -135 37 -65 30 -72 -10 -9 -19 30 -35 64 -35 77
0 13 -4 23 -9 23 -16 0 -41 -43 -41 -71 0 -16 -14 -44 -35 -69 -19 -23 -35
-37 -35 -32 0 6 12 24 26 41 16 19 28 48 31 74 3 29 13 49 33 67 25 23 28 33
32 102 l3 78 -35 6 c-19 3 -64 12 -99 20 -35 8 -65 13 -67 11 -2 -1 8 -92 21
-202 37 -311 40 -424 20 -626 -23 -221 -18 -259 38 -315 50 -50 52 -50 477
-151 173 -41 368 -90 433 -109 143 -41 161 -42 183 -9 15 23 16 49 11 213 -9
281 -41 454 -119 647 -54 134 -82 225 -113 375 -75 352 -105 427 -233 581
-225 272 -490 412 -639 338z m326 -1709 c11 -24 11 -24 -3 -6 -9 11 -16 24
-16 30 0 12 5 7 19 -24z m586 -230 c14 -7 8 -8 -20 -3 -22 3 -42 7 -44 9 -9 8
45 2 64 -6z"></path>
      <path d="M15437 15604 c-3 -3 4 -21 15 -40 11 -19 18 -37 15 -40 -3 -3 -15 13
-27 35 l-20 41 -43 -21 c-100 -51 -161 -125 -192 -233 -32 -111 4 -252 85
-331 l38 -37 40 26 c53 33 69 15 22 -24 l-34 -28 32 -16 c41 -21 40 -21 48 19
3 19 10 37 14 40 11 7 23 -24 24 -60 l1 -30 80 0 c44 0 88 3 98 7 17 7 16 11
-9 43 -37 49 -22 57 24 12 l37 -36 33 20 c17 12 32 28 32 36 0 8 4 12 9 9 9
-6 72 58 91 94 9 16 9 25 -1 36 -17 20 -26 17 -26 -9 0 -20 -48 -107 -59 -107
-2 0 6 21 19 48 22 44 24 56 19 180 -4 125 -5 133 -23 129 -10 -3 -19 -2 -19
2 0 9 46 31 65 31 27 0 27 22 -2 62 -31 47 -64 68 -173 115 -59 26 -88 33
-141 33 -36 0 -68 -3 -72 -6z m339 -272 c-17 -16 -18 -16 -5 5 7 12 15 20 18
17 3 -2 -3 -12 -13 -22z"></path>
      <path d="M15825 15304 c-8 -20 -15 -56 -15 -80 0 -36 5 -46 29 -63 24 -18 30
-18 35 -6 11 30 18 115 12 149 -9 50 -40 49 -61 0z"></path>
      <path d="M4960 14425 c-118 -34 -138 -101 -45 -156 59 -35 68 -70 62 -248 -5
-173 -19 -238 -70 -341 -36 -72 -42 -76 -167 -115 -47 -15 -123 -47 -169 -73
-83 -44 -86 -45 -130 -33 -115 31 -244 114 -368 239 -104 105 -120 137 -101
209 21 84 -23 121 -108 88 -132 -50 -246 -216 -204 -295 11 -21 16 -22 88 -15
75 6 78 5 124 -25 52 -34 147 -132 207 -213 52 -70 87 -135 111 -208 l21 -60
-60 -122 c-40 -82 -68 -156 -85 -225 -13 -57 -32 -112 -42 -123 -36 -40 -197
-70 -313 -59 -47 5 -58 11 -85 43 -17 20 -38 37 -47 37 -44 0 -80 -112 -60
-187 24 -87 68 -105 104 -43 23 38 50 45 164 44 112 -2 226 -33 247 -67 7 -12
19 -51 26 -87 16 -84 57 -197 108 -293 37 -70 39 -80 30 -114 -33 -119 -100
-224 -228 -357 -119 -123 -132 -130 -225 -121 -60 5 -75 4 -89 -10 -76 -76
131 -324 261 -313 51 4 63 29 50 102 -8 42 -7 62 4 88 19 46 180 204 267 262
81 54 194 105 231 106 13 0 74 -25 135 -55 63 -31 148 -64 196 -75 164 -40
162 -39 184 -95 19 -52 34 -231 22 -279 -3 -14 -19 -33 -36 -42 -53 -32 -50
-64 11 -88 70 -28 162 -15 198 28 13 16 10 21 -27 56 l-42 38 0 103 c1 80 6
119 23 169 25 73 16 68 187 110 47 11 132 43 189 71 122 60 149 61 254 11 98
-45 182 -106 284 -205 113 -109 140 -158 124 -222 -21 -85 -6 -115 57 -115 99
1 238 121 272 237 26 87 -9 121 -104 101 -72 -16 -100 -2 -201 93 -127 121
-220 261 -261 391 l-17 57 51 103 c28 57 63 143 77 192 14 49 30 95 35 101 17
21 127 65 197 80 78 17 309 20 347 5 14 -5 38 -27 53 -49 52 -74 97 -71 135 8
30 63 31 186 1 253 -36 80 -85 87 -129 16 -36 -56 -72 -68 -204 -68 -155 0
-332 40 -389 88 -13 10 -31 53 -46 107 -29 99 -67 188 -120 275 -19 32 -35 69
-35 83 0 50 80 184 163 273 100 106 121 118 198 109 56 -7 59 -6 70 18 15 32
8 60 -30 118 -33 53 -85 96 -137 114 -69 23 -99 -5 -85 -81 4 -22 4 -50 0 -62
-14 -37 -150 -167 -224 -214 -128 -81 -168 -88 -240 -38 -61 42 -161 87 -259
116 -93 28 -108 39 -142 111 -42 89 -65 219 -65 365 1 148 12 185 68 219 19
12 41 32 50 45 14 22 14 26 -2 50 -38 59 -188 89 -295 59z"></path>
      <path d="M9312 14341 c-119 -41 -208 -132 -249 -251 -26 -79 -24 -286 4 -391
l20 -76 -89 29 c-182 58 -351 60 -472 5 -181 -83 -271 -362 -179 -558 16 -36
60 -109 96 -162 37 -54 67 -104 67 -113 0 -31 -46 -61 -129 -83 -113 -31 -162
-53 -210 -96 -56 -51 -75 -106 -69 -200 4 -63 12 -90 52 -171 78 -162 236
-378 446 -612 75 -83 97 -102 114 -98 11 3 51 8 87 12 37 4 72 9 77 13 7 4 4
33 -8 84 -10 43 -23 126 -29 185 -27 267 49 445 222 520 80 35 182 -2 270 -97
42 -46 61 -60 70 -53 7 6 109 130 227 276 210 258 216 265 258 272 72 11 214
-21 487 -110 644 -210 846 -254 1105 -243 174 8 253 26 370 83 77 38 109 61
170 123 73 74 148 190 135 211 -13 21 -31 7 -65 -51 -73 -128 -211 -236 -361
-284 -256 -81 -555 -42 -1163 150 -116 36 -230 71 -253 77 -24 6 -42 13 -39
15 2 3 96 -20 208 -51 370 -100 509 -133 740 -172 353 -60 545 -21 722 146
191 180 296 460 296 788 0 266 -58 408 -195 480 -80 41 -187 36 -450 -21 -337
-74 -502 -82 -745 -35 -192 36 -352 94 -775 281 -359 158 -483 197 -630 197
-51 -1 -99 -7 -133 -19z"></path>
      <path d="M9162 12097 c2 -44 -1 -73 -6 -69 -5 3 -7 -1 -4 -10 4 -8 0 -15 -8
-15 -7 0 -11 4 -8 9 8 12 -35 78 -50 78 -25 0 -25 -13 1 -46 14 -19 23 -34 20
-34 -2 0 0 -21 4 -47 8 -40 6 -52 -16 -89 -14 -23 -32 -50 -41 -59 -19 -18 -5
-43 16 -30 25 16 98 143 108 190 16 67 11 187 -6 193 -11 3 -13 -12 -10 -71z"></path>
      <path d="M10235 12160 c-4 -6 11 -28 33 -50 77 -72 210 -120 337 -120 77 0
165 21 185 45 22 27 1 34 -47 15 -143 -53 -342 -16 -460 85 -26 22 -44 31 -48
25z"></path>
      <path d="M10920 12036 c0 -19 41 -61 81 -82 50 -26 212 -32 281 -9 67 21 118
55 118 78 0 22 -13 22 -35 -3 -29 -32 -112 -55 -200 -55 -91 0 -158 21 -195
60 -26 27 -50 33 -50 11z"></path>
      <path d="M10233 11973 c-7 -18 32 -54 79 -74 19 -8 27 -18 25 -31 -3 -29 50
-46 144 -47 63 -1 84 3 130 27 43 21 54 32 54 51 l0 25 -135 0 c-131 1 -137 2
-204 34 -79 37 -84 38 -93 15z m172 -108 c30 -8 40 -14 25 -14 -14 0 -38 6
-55 14 -39 17 -32 17 30 0z"></path>
      <path d="M10997 11893 c-15 -14 -5 -43 22 -66 67 -56 170 -87 245 -73 57 11
42 26 -26 27 l-63 1 64 10 c78 11 144 42 139 66 -4 19 -29 20 -96 3 -47 -12
-126 -3 -203 24 -45 16 -72 19 -82 8z"></path>
      <path d="M10852 11395 c9 -10 21 -16 28 -13 7 2 -1 10 -16 17 -27 12 -28 11
-12 -4z"></path>
      <path d="M10975 11389 c-11 -4 -32 -8 -47 -8 -16 -1 -28 -6 -28 -11 0 -14 64
-9 86 7 22 16 16 23 -11 12z"></path>
      <path d="M9073 11247 c4 -10 7 -21 7 -23 0 -3 6 -2 13 2 9 5 9 4 1 -5 -12 -13
-7 -54 5 -47 3 2 7 -8 7 -22 1 -15 9 -45 19 -67 10 -22 19 -42 19 -45 4 -17
51 -127 60 -139 5 -7 11 -18 12 -25 1 -6 19 -40 40 -75 22 -35 47 -78 57 -95
41 -69 69 -99 79 -85 7 11 8 9 4 -4 -5 -14 17 -42 87 -111 113 -113 179 -160
210 -151 16 5 18 4 8 -3 -11 -8 -5 -15 26 -31 22 -11 43 -17 47 -14 3 4 6 1 6
-6 0 -8 6 -11 16 -7 8 3 13 2 10 -2 -5 -9 62 -37 70 -29 3 2 0 33 -6 68 -7 35
-12 79 -12 97 -1 24 -9 38 -28 52 -15 11 -30 16 -34 12 -4 -4 -6 0 -4 8 2 9
-4 14 -14 14 -10 -1 -16 2 -13 6 3 5 -14 23 -37 41 -24 19 -45 36 -48 39 -40
42 -103 89 -112 84 -6 -4 -8 -3 -5 3 8 13 -27 46 -38 36 -4 -5 -5 -3 -2 3 3 6
-15 31 -41 55 -25 24 -38 33 -27 19 l20 -25 -22 19 c-12 10 -22 21 -21 25 2
22 -4 32 -18 27 -9 -3 -12 -2 -8 5 7 13 -33 59 -50 55 -6 -2 -7 -1 -3 2 4 2 2
10 -4 18 -10 12 -14 12 -21 2 -7 -10 -8 -10 -7 2 3 31 -1 42 -16 37 -8 -4 -17
-1 -21 5 -4 7 -3 8 4 4 26 -16 9 11 -46 73 -32 36 -61 74 -65 84 -4 11 -12 15
-19 11 -7 -4 -10 -4 -6 1 7 8 -44 86 -71 108 -12 10 -14 9 -8 -6z m420 -704
c-7 -2 -13 -9 -13 -15 0 -6 7 -8 15 -5 8 4 16 3 19 -1 3 -4 -4 -8 -14 -9 -11
-1 -22 2 -25 8 -8 12 3 29 18 28 9 0 9 -2 0 -6z m252 -213 c3 -6 -1 -7 -9 -4
-18 7 -21 14 -7 14 6 0 13 -4 16 -10z"></path>
      <path d="M17565 11242 c-31 -7 -35 -22 -18 -64 15 -37 14 -40 -13 -93 -32 -64
-119 -164 -170 -195 -34 -22 -36 -22 -99 -6 -35 9 -96 16 -135 16 -83 0 -97
10 -129 94 -25 67 -27 105 -6 132 20 26 19 33 -9 44 -29 11 -88 -3 -112 -27
-15 -15 -14 -19 15 -42 17 -14 36 -42 41 -61 12 -41 15 -143 5 -159 -3 -7 -35
-25 -70 -42 -34 -17 -86 -51 -114 -76 -48 -42 -55 -45 -93 -39 -67 11 -147 43
-214 87 -63 41 -69 48 -78 103 -8 43 -20 51 -56 36 -51 -21 -100 -100 -100
-162 0 -37 20 -44 72 -27 38 12 43 11 96 -17 64 -34 162 -120 193 -170 21 -34
21 -37 5 -93 -9 -31 -16 -94 -16 -139 0 -82 0 -82 -32 -102 -18 -11 -58 -28
-88 -37 -51 -15 -57 -15 -84 1 -42 24 -56 3 -43 -66 5 -21 16 -42 27 -48 16
-9 22 -6 34 19 13 23 26 31 66 40 76 16 124 14 143 -7 10 -10 17 -22 17 -27 0
-14 88 -150 109 -169 28 -26 27 -83 -3 -169 -31 -85 -101 -195 -130 -203 -29
-7 -58 -12 -73 -13 -8 -1 -13 -14 -13 -31 0 -59 122 -142 185 -126 28 7 32 30
14 81 -11 28 -8 38 20 92 41 77 120 166 176 198 42 25 43 25 106 10 35 -8 86
-15 112 -15 37 0 53 -5 72 -24 35 -35 74 -118 92 -197 15 -68 15 -72 -4 -97
-32 -45 -34 -50 -17 -66 37 -38 185 2 192 51 3 17 -5 26 -32 37 -49 21 -76 98
-77 220 -1 96 7 114 61 141 27 13 78 50 115 81 61 52 68 56 103 49 48 -9 151
-59 185 -91 18 -16 27 -35 27 -55 0 -37 22 -47 56 -25 35 23 64 75 64 113 0
40 -8 45 -53 31 -33 -10 -41 -8 -93 23 -63 38 -144 122 -144 149 0 10 7 37 15
60 8 24 18 75 21 114 8 84 22 105 105 146 58 30 160 60 202 60 13 0 36 -9 50
-20 28 -22 62 -26 73 -9 12 19 7 103 -8 139 -31 74 -71 90 -93 37 -8 -19 -20
-39 -27 -45 -43 -35 -258 -57 -321 -33 -14 6 -34 25 -43 43 -9 18 -39 61 -65
95 -27 35 -49 73 -49 85 0 65 58 203 113 272 18 22 35 31 68 35 35 5 45 10 47
28 8 57 -105 139 -173 125z"></path>
      <path d="M10575 11112 c-141 -86 -151 -255 -23 -379 53 -51 130 -88 218 -104
82 -14 135 -6 155 24 8 13 19 56 25 96 14 101 19 116 57 196 18 38 33 78 33
89 0 18 -1 18 -18 3 -10 -10 -35 -17 -54 -17 -47 0 -191 42 -275 80 -77 35
-79 35 -118 12z"></path>
      <path d="M12862 10723 c-22 -21 -44 -49 -47 -63 -5 -18 1 -13 19 16 14 23 41
51 58 63 18 11 28 21 22 21 -6 0 -30 -17 -52 -37z"></path>
      <path d="M10541 10661 c13 -11 26 -17 29 -14 6 6 -30 33 -43 33 -5 0 1 -9 14
-19z"></path>
      <path d="M12526 10646 c-31 -32 -64 -101 -54 -112 3 -2 10 13 16 33 11 37 37
69 77 98 11 8 15 15 8 15 -7 0 -28 -15 -47 -34z"></path>
      <path d="M12610 10672 c0 -5 10 -13 23 -19 40 -19 227 -173 238 -197 9 -18 6
-34 -10 -73 -24 -53 -60 -82 -121 -94 -32 -6 -32 -7 -7 -8 16 0 37 4 48 9 15
9 20 7 25 -7 10 -31 20 -47 35 -51 11 -4 10 -1 -2 14 -25 29 -32 61 -15 67 19
7 66 99 66 127 0 12 -18 38 -39 58 -38 36 -39 39 -34 86 5 38 3 47 -6 41 -8
-4 -11 -20 -9 -37 7 -42 -7 -44 -55 -5 -64 52 -137 99 -137 89z"></path>
      <path d="M10580 10642 c0 -6 11 -17 25 -26 14 -9 25 -13 25 -9 -1 12 -50 46
-50 35z"></path>
      <path d="M10640 10600 c0 -6 5 -8 10 -5 6 3 10 2 10 -4 0 -9 9 -13 62 -29 42
-12 157 -7 170 7 11 11 8 12 -17 7 -61 -14 -140 -3 -217 29 -11 4 -18 3 -18
-5z"></path>
      <path d="M13102 10570 c-29 -4 -56 -11 -60 -15 -7 -7 68 2 128 15 46 11 4 10
-68 0z"></path>
      <path d="M13228 10573 c12 -2 32 -2 45 0 12 2 2 4 -23 4 -25 0 -35 -2 -22 -4z"></path>
      <path d="M13006 10544 c-22 -21 -20 -27 4 -12 11 7 20 16 20 20 0 12 -7 10
-24 -8z"></path>
      <path d="M12962 10448 c-24 -79 -35 -128 -28 -128 3 0 10 19 16 43 6 23 18 64
26 91 8 26 13 50 10 53 -2 3 -13 -24 -24 -59z"></path>
      <path d="M13378 10423 c12 -2 32 -2 45 0 12 2 2 4 -23 4 -25 0 -35 -2 -22 -4z"></path>
      <path d="M13226 10409 c-67 -11 -102 -27 -121 -55 -8 -13 -11 -24 -6 -24 5 0
12 8 15 18 8 22 55 40 154 57 42 7 61 13 42 13 -19 0 -57 -4 -84 -9z"></path>
      <path d="M13086 10299 c-2 -13 -12 -60 -20 -103 -9 -43 -14 -81 -11 -84 7 -7
12 12 30 112 9 48 14 91 11 93 -3 3 -7 -5 -10 -18z"></path>
      <path d="M12930 10302 c0 -7 0 -13 1 -14 0 -2 -4 -15 -10 -30 -6 -15 -6 -30
-2 -33 10 -6 26 73 17 82 -3 4 -6 1 -6 -5z"></path>
      <path d="M12868 10233 c6 -2 18 -2 25 0 6 3 1 5 -13 5 -14 0 -19 -2 -12 -5z"></path>
      <path d="M12921 10168 c0 -26 3 -58 9 -72 10 -27 64 -66 90 -66 8 0 -4 9 -27
20 -44 20 -47 25 -62 115 l-9 50 -1 -47z"></path>
      <path d="M13270 10180 c-33 -33 -26 -65 18 -87 30 -14 38 -24 40 -50 4 -36
-11 -48 -88 -69 -25 -7 -37 -13 -26 -13 34 -2 95 21 116 44 27 29 14 68 -35
96 -52 31 -45 64 8 38 15 -7 12 -3 -7 12 l-28 22 23 13 c13 7 18 13 12 14 -7
0 -22 -9 -33 -20z"></path>
      <path d="M13348 10123 c6 -2 18 -2 25 0 6 3 1 5 -13 5 -14 0 -19 -2 -12 -5z"></path>
      <path d="M13052 10075 c0 -16 2 -22 5 -12 2 9 2 23 0 30 -3 6 -5 -1 -5 -18z"></path>
      <path d="M13057 10014 c20 -31 70 -54 110 -53 20 1 15 4 -17 10 -31 6 -53 18
-71 39 -31 37 -46 39 -22 4z"></path>
      <path d="M3783 8364 c-3 -8 0 -33 7 -54 12 -35 10 -41 -21 -100 -35 -65 -125
-165 -172 -189 -24 -13 -35 -13 -75 -2 -26 7 -89 16 -140 18 l-93 6 -25 42
c-13 24 -30 68 -36 98 -11 50 -10 58 6 76 32 35 14 54 -44 49 -28 -3 -59 -13
-69 -22 -21 -19 -18 -46 5 -46 33 0 64 -106 54 -185 -5 -37 -10 -42 -76 -80
-39 -22 -91 -57 -116 -77 -26 -22 -56 -38 -70 -38 -70 0 -247 80 -290 131 -10
12 -18 34 -18 49 0 35 -24 61 -48 53 -57 -20 -121 -126 -108 -178 7 -28 23
-31 71 -14 28 11 39 9 90 -17 65 -33 164 -118 195 -169 21 -34 21 -37 6 -104
-9 -39 -16 -101 -16 -140 0 -63 -2 -71 -26 -90 -28 -22 -113 -51 -148 -51 -10
0 -27 7 -37 16 -10 9 -23 13 -30 9 -17 -11 -6 -103 15 -123 16 -16 19 -15 44
15 22 27 38 34 94 44 83 15 112 5 135 -48 18 -44 65 -117 101 -155 22 -24 24
-33 19 -87 -3 -42 -17 -86 -45 -143 -57 -116 -87 -150 -143 -157 -36 -5 -45
-10 -47 -28 -5 -34 32 -78 90 -107 95 -47 141 -29 112 43 -15 39 -15 42 6 86
48 98 155 214 221 237 8 3 40 0 69 -8 30 -8 78 -14 108 -14 43 0 57 -5 78 -25
34 -34 80 -136 95 -211 12 -61 12 -63 -14 -93 -44 -52 -13 -79 80 -68 52 6 97
34 101 64 2 16 -7 26 -35 39 -34 17 -40 26 -55 79 -18 66 -23 190 -9 228 5 14
33 37 63 54 29 17 79 54 111 82 66 58 78 59 182 12 83 -38 123 -74 127 -114 4
-45 34 -47 75 -5 65 68 60 150 -7 125 -27 -10 -37 -8 -87 18 -51 28 -153 125
-153 146 0 5 9 42 20 81 11 40 20 95 20 121 0 42 5 53 31 78 43 40 122 76 211
96 83 18 74 19 144 -32 26 -18 48 19 47 78 -1 56 -18 100 -51 130 -24 22 -45
15 -59 -22 -15 -40 -47 -58 -138 -77 -82 -17 -177 -14 -215 6 -11 6 -28 27
-39 48 -10 20 -40 63 -66 94 -46 56 -47 58 -40 109 8 60 82 213 119 248 14 13
43 27 63 30 46 8 55 36 25 79 -40 55 -164 95 -179 56z"></path>
      <path d="M16833 8300 c-33 -14 -38 -50 -14 -103 27 -60 26 -87 -5 -150 -79
-157 -242 -343 -346 -395 l-46 -22 -93 26 c-74 20 -126 27 -243 31 -143 6
-151 7 -173 31 -32 34 -73 124 -95 206 -25 94 -23 128 7 164 30 36 32 67 6 82
-31 16 -122 11 -166 -9 -85 -38 -98 -79 -35 -111 22 -11 46 -30 54 -43 42 -63
64 -304 32 -352 -9 -13 -56 -44 -105 -68 -106 -53 -155 -86 -239 -161 -58 -52
-67 -56 -111 -56 -111 0 -292 68 -437 163 -103 68 -117 86 -125 162 -3 36 -12
72 -19 80 -16 19 -63 19 -99 1 -99 -52 -201 -264 -157 -330 23 -36 51 -41 97
-17 56 30 99 26 177 -13 150 -75 325 -233 377 -340 l25 -51 -20 -65 c-29 -97
-40 -182 -40 -306 0 -107 -1 -111 -27 -136 -38 -37 -124 -75 -212 -94 -77 -17
-94 -14 -153 28 -70 50 -77 -154 -8 -217 27 -25 51 -15 74 30 18 34 30 43 76
59 67 23 247 34 278 17 12 -6 43 -55 71 -110 52 -106 110 -191 174 -258 38
-39 40 -44 38 -101 -3 -131 -71 -310 -178 -470 -64 -95 -102 -120 -182 -120
-128 -1 -93 -133 62 -233 102 -66 227 -77 248 -23 7 20 4 37 -12 72 -30 67
-27 106 14 187 93 185 319 415 407 415 15 0 62 -9 106 -21 43 -11 128 -23 188
-26 107 -6 110 -7 147 -40 67 -61 142 -231 173 -391 16 -87 10 -118 -34 -169
-41 -47 -38 -81 10 -106 97 -50 330 31 330 115 0 30 -12 41 -60 57 -53 18 -79
49 -100 120 -39 136 -52 278 -35 399 9 64 32 95 98 129 81 40 159 96 241 173
49 45 84 70 99 70 42 0 173 -38 228 -65 28 -15 83 -47 120 -72 73 -48 101 -90
92 -135 -7 -35 28 -72 60 -63 116 34 224 280 129 293 -12 2 -42 -4 -67 -13
-54 -21 -77 -15 -182 51 -134 83 -243 201 -243 262 0 16 9 55 20 88 26 74 50
210 50 283 1 31 6 66 13 79 16 28 106 96 170 128 114 59 341 115 400 100 15
-3 45 -22 66 -41 78 -70 131 -29 131 100 -1 147 -84 284 -158 261 -12 -4 -29
-28 -42 -62 -29 -70 -56 -89 -177 -121 -85 -23 -119 -27 -253 -27 -174 -1
-218 11 -253 69 -67 111 -120 187 -165 236 -50 55 -52 59 -52 116 0 110 57
267 149 410 74 117 96 134 177 142 99 11 115 47 57 133 -62 92 -236 170 -310
138z"></path>
      <path d="M3545 4894 c-11 -3 -47 -12 -79 -20 -265 -65 -493 -283 -575 -547
-33 -107 -44 -231 -32 -337 25 -201 98 -350 245 -496 79 -79 106 -98 196 -143
149 -72 206 -86 375 -86 162 0 224 13 353 75 406 193 579 673 393 1084 -74
163 -213 307 -375 386 -55 28 -128 57 -161 66 -59 16 -298 28 -340 18z m291
-23 c376 -78 644 -406 644 -788 0 -233 -88 -437 -255 -590 -111 -103 -215
-159 -366 -200 -87 -23 -281 -23 -368 0 -163 44 -265 102 -382 217 -161 159
-239 344 -239 570 0 235 86 431 262 595 189 175 451 248 704 196z"></path>
      <path d="M3577 4304 c-12 -12 -37 -25 -54 -28 -26 -6 -34 -14 -42 -43 -6 -20
-21 -48 -35 -62 -36 -37 -22 -56 30 -42 59 16 135 13 206 -9 68 -21 130 -25
192 -11 56 13 61 23 31 59 -15 18 -31 47 -36 66 -8 28 -16 36 -42 41 -17 4
-42 17 -55 29 -20 17 -36 21 -98 22 -64 0 -78 -3 -97 -22z"></path>
    </g>
  </symbol>
  <symbol version="1.0" xmlns="http://www.w3.org/2000/svg" preserveAspectRatio="xMidYMid meet" viewBox="0 0 2000.000000 2000.000000" id="woman_breathing">
    <g transform="translate(0.000000,2000.000000) scale(0.100000,-0.100000)" fill="#000000" stroke="none">
      <path d="M1940 15740 l0 -2650 1975 3 1975 2 3 2648 2 2647 -1977 0 -1978 0 0
-2650z m3778 3 l-3 -2448 -1795 0 -1795 0 -3 2448 -2 2447 1800 0 1800 0 -2
-2447z"></path>
      <path d="M3626 17035 c-8 -510 -3 -2341 6 -2351 9 -8 15 1653 9 2271 l-6 620
-9 -540z"></path>
      <path d="M3739 16850 c-7 -765 1 -2200 11 -2115 9 74 11 2159 2 2525 -7 296
-7 271 -13 -410z"></path>
      <path d="M3293 16120 c0 -795 2 -1429 6 -1410 10 50 12 2312 2 2610 -5 153 -8
-299 -8 -1200z"></path>
      <path d="M4076 17203 c-9 -441 -5 -2441 5 -2492 4 -20 7 613 8 1407 0 793 -1
1442 -3 1442 -1 0 -6 -161 -10 -357z"></path>
      <path d="M4187 16810 c-5 -415 -6 -1023 -2 -1350 3 -327 6 -637 5 -689 0 -52
3 -92 6 -88 10 9 15 1999 7 2457 l-8 425 -8 -755z"></path>
      <path d="M5086 17020 c-8 -530 -4 -2326 6 -2335 9 -9 16 1679 10 2280 l-7 600
-9 -545z"></path>
      <path d="M2727 16848 c-5 -389 -5 -1037 0 -1440 l8 -733 6 380 c8 491 8 1667
0 2135 l-6 365 -8 -707z"></path>
      <path d="M3176 16915 c-8 -565 -2 -2223 8 -2232 9 -10 16 1749 9 2277 l-9 595
-8 -640z"></path>
      <path d="M4636 16890 c-8 -642 -2 -2197 9 -2208 3 -3 5 28 5 69 0 41 3 457 5
924 3 468 2 1082 -3 1365 l-7 515 -9 -665z"></path>
      <path d="M4753 16115 c-1 -792 3 -1425 7 -1406 10 43 11 2309 1 2616 -4 136
-8 -360 -8 -1210z"></path>
      <path d="M2843 16110 c-1 -789 2 -1424 6 -1409 11 33 12 2428 2 2664 -4 102
-8 -443 -8 -1255z"></path>
      <path d="M3066 17298 c-9 -328 -5 -2578 5 -2603 4 -11 8 625 8 1413 1 787 -1
1432 -2 1432 -2 0 -7 -109 -11 -242z"></path>
      <path d="M4526 17278 c-9 -353 -6 -2543 4 -2577 5 -14 9 619 9 1407 1 787 -1
1432 -3 1432 -1 0 -6 -118 -10 -262z"></path>
      <path d="M4302 16105 c0 -786 3 -1421 7 -1410 11 26 12 2455 2 2675 -4 93 -8
-458 -9 -1265z"></path>
      <path d="M4976 17348 c-10 -272 -7 -2641 4 -2658 6 -10 10 505 10 1408 0 782
-2 1422 -3 1422 -2 0 -7 -78 -11 -172z"></path>
      <path d="M3516 17356 c-10 -229 -6 -2650 5 -2667 5 -8 9 557 9 1404 0 779 -2
1417 -3 1417 -2 0 -7 -69 -11 -154z"></path>
      <path d="M3852 16095 c-1 -888 2 -1414 8 -1405 11 18 12 2538 1 2710 -4 63 -8
-524 -9 -1305z"></path>
      <path d="M3401 16088 c0 -888 3 -1398 9 -1398 11 0 12 2644 0 2735 -4 33 -8
-569 -9 -1337z"></path>
      <path d="M3966 17403 c-11 -130 -7 -2713 4 -2713 7 0 10 472 10 1395 0 767 -2
1395 -4 1395 -1 0 -6 -34 -10 -77z"></path>
      <path d="M4861 16083 c-1 -923 2 -1393 9 -1393 12 0 12 2658 0 2735 -4 28 -8
-577 -9 -1342z"></path>
      <path d="M2950 16066 c0 -911 3 -1376 10 -1376 7 0 10 463 10 1369 0 903 -3
1372 -10 1376 -7 4 -10 -455 -10 -1369z"></path>
      <path d="M4417 17433 c-12 -11 -8 -2743 3 -2743 7 0 10 465 10 1375 0 756 -1
1375 -3 1375 -2 0 -7 -3 -10 -7z"></path>
      <path d="M8830 14773 c-105 -17 -236 -79 -323 -151 -231 -193 -305 -506 -181
-767 34 -74 106 -167 155 -204 l41 -29 -49 -7 c-134 -19 -293 -82 -332 -131
-55 -71 7 -154 105 -140 l43 6 -19 -33 c-60 -98 26 -206 156 -195 36 3 43 0
38 -12 -35 -93 -131 -398 -163 -520 -111 -427 -171 -833 -206 -1380 -18 -284
-82 -1186 -91 -1277 l-6 -63 114 41 c129 46 944 330 999 348 242 78 362 440
290 876 -29 171 -65 348 -96 461 -47 174 -51 355 -12 574 8 41 29 159 47 262
l34 187 40 7 c129 21 284 111 406 235 73 74 92 88 132 96 l47 10 -17 -25 -16
-25 71 5 c84 6 137 33 200 100 96 105 177 308 224 563 l19 100 -4 -165 c-5
-173 -25 -307 -71 -478 -14 -51 -25 -96 -25 -100 0 -4 28 -7 63 -8 34 0 94 -2
132 -4 120 -6 150 24 178 175 29 151 40 315 35 495 l-6 175 30 -65 c104 -226
139 -349 145 -511 l6 -126 -71 -5 c-85 -6 -137 -32 -137 -69 0 -22 5 -25 65
-32 36 -4 88 -14 115 -21 64 -18 176 -35 193 -29 23 9 13 50 -20 79 l-33 29 3
116 c1 64 -2 143 -7 175 -5 33 -8 60 -6 62 6 7 58 -154 95 -296 22 -84 53
-185 70 -225 35 -82 41 -137 61 -507 11 -213 7 -613 -7 -722 -6 -45 -5 -48 22
-58 16 -6 39 -21 51 -32 18 -17 36 -21 93 -22 69 -1 73 -2 106 -38 29 -32 34
-45 34 -87 0 -31 5 -53 15 -61 34 -28 13 -92 -35 -109 -27 -9 -30 -13 -21 -30
18 -34 13 -96 -11 -126 -49 -63 -170 -84 -258 -44 -25 11 -63 38 -86 60 -34
33 -46 39 -67 34 -14 -4 -33 -18 -41 -31 -32 -48 -142 -157 -201 -200 -34 -24
-97 -60 -141 -81 l-79 -38 -175 0 c-98 0 -208 6 -250 14 -194 34 -387 94 -532
167 -49 24 -88 39 -88 33 0 -35 151 -195 242 -257 78 -54 207 -110 313 -139
89 -23 119 -26 278 -27 l177 -1 0 -152 0 -152 38 -10 c20 -6 175 -44 344 -85
296 -73 941 -268 1063 -322 31 -13 57 -24 59 -24 2 0 -20 46 -49 103 -105 201
-187 446 -305 917 -91 364 -130 559 -151 755 -31 297 -74 568 -144 914 -19 96
-35 199 -35 228 0 87 -35 407 -56 506 -18 89 -73 233 -144 381 -99 206 -221
375 -336 467 -126 100 -425 230 -612 265 -120 22 -493 14 -629 -14 -51 -10
-96 -15 -100 -11 -4 4 -16 9 -27 11 -16 3 -19 13 -20 83 -1 94 -18 136 -82
199 -57 57 -182 121 -285 146 -79 19 -253 26 -329 13z m1336 -1375 c-10 -78
-34 -164 -68 -245 l-30 -73 -39 0 -39 0 63 128 c35 70 74 153 87 185 13 31 26
57 28 57 3 0 2 -24 -2 -52z"></path>
      <path d="M16492 14030 c-76 -18 -180 -63 -227 -98 -149 -111 -139 -317 22
-479 l36 -35 -57 -182 c-94 -295 -84 -281 -85 -131 -2 276 -69 442 -203 509
-108 54 -225 25 -283 -69 -29 -47 -30 -52 -30 -169 0 -105 3 -126 22 -162 62
-116 225 -184 375 -156 34 7 72 15 83 18 19 5 20 2 13 -113 -5 -87 -15 -152
-41 -248 -19 -71 -36 -128 -36 -125 -1 3 -6 43 -11 88 -25 193 -111 302 -241
302 -94 0 -252 -108 -299 -204 -71 -148 44 -289 211 -258 71 13 189 62 256
106 41 27 53 31 57 19 15 -38 3 -178 -28 -346 -71 -373 -120 -781 -130 -1067
-5 -164 -6 -168 35 255 21 217 54 465 89 665 35 196 91 454 103 471 7 9 39 55
72 101 l61 85 47 -43 c95 -85 248 -163 323 -164 93 0 165 50 184 130 21 87
-19 181 -114 268 -79 72 -133 95 -206 90 -98 -7 -178 -78 -216 -190 -9 -28
-46 -91 -81 -142 -56 -78 -64 -86 -58 -56 16 76 96 366 145 527 l52 171 47 12
c113 28 307 144 383 229 102 113 102 256 2 339 -65 54 -176 75 -272 52z"></path>
      <path d="M14524 13421 c-50 -23 -97 -78 -114 -134 -28 -96 -8 -250 43 -319 69
-94 251 -142 395 -105 49 13 52 13 66 -8 46 -70 308 -620 331 -695 7 -22 3
-21 -37 16 -24 22 -52 45 -61 50 -12 7 -21 32 -28 75 -32 204 -180 296 -344
214 -79 -40 -177 -137 -193 -191 -38 -131 22 -228 150 -241 83 -8 229 42 342
119 l39 27 34 -26 c74 -57 142 -146 174 -228 58 -149 187 -549 230 -717 24
-93 48 -168 52 -168 12 0 0 54 -53 250 -85 310 -174 569 -305 880 -76 181
-105 300 -105 427 l0 50 63 32 c84 42 177 118 216 177 121 183 53 408 -118
392 -61 -6 -147 -46 -190 -89 -98 -97 -108 -287 -25 -451 16 -32 27 -77 34
-140 5 -51 12 -109 16 -128 4 -21 -25 26 -73 120 -44 85 -95 179 -112 208 -27
47 -31 62 -31 130 0 89 -29 239 -58 305 -63 143 -220 221 -338 168z"></path>
      <path d="M10450 12811 c0 -32 81 -245 200 -524 56 -131 99 -245 96 -252 -2 -7
-31 -18 -63 -25 -118 -22 -153 -32 -153 -42 0 -15 188 1 227 19 60 28 56 55
-38 280 -102 245 -234 532 -254 552 -13 14 -15 13 -15 -8z"></path>
      <path d="M10750 12417 c0 -71 164 -128 276 -97 50 14 114 63 114 86 0 18 -3
18 -78 -6 -85 -27 -148 -25 -234 5 -84 29 -78 28 -78 12z"></path>
      <path d="M10145 12387 c-62 -25 -179 -27 -244 -3 -56 20 -61 20 -61 -4 0 -26
62 -66 125 -80 88 -20 201 11 245 67 38 49 18 55 -65 20z"></path>
      <path d="M2521 11940 c-7 -74 -14 -143 -16 -154 -2 -12 -6 -55 -10 -96 -3 -41
-8 -93 -10 -115 -27 -262 -46 -572 -46 -756 1 -170 8 -207 65 -303 34 -59 134
-156 212 -207 35 -23 64 -43 64 -44 0 -1 -88 19 -196 47 -108 27 -198 47 -200
45 -2 -2 -6 -64 -9 -138 -15 -402 -23 -537 -41 -666 -16 -119 -8 -152 51 -233
60 -82 229 -231 375 -332 24 -16 15 -17 -202 -17 l-228 -1 0 -105 c0 -269 87
-663 227 -1025 181 -469 488 -1007 823 -1442 79 -102 72 -67 90 -498 14 -352
16 -373 18 -230 1 69 -3 224 -8 345 -15 341 -15 342 8 475 12 69 31 196 42
283 l20 158 77 137 c482 859 811 1778 933 2602 28 192 29 188 -22 194 -40 5
-248 25 -272 26 -6 1 21 11 61 24 248 81 442 285 574 606 46 110 146 427 138
435 -3 2 -90 -9 -194 -25 -105 -17 -196 -30 -204 -30 -8 0 17 23 55 52 97 73
248 229 321 332 107 150 224 406 249 539 l7 39 -50 -26 c-152 -76 -343 -227
-519 -408 -218 -225 -373 -447 -541 -774 -152 -296 -249 -536 -409 -1008 -78
-230 -94 -289 -94 -339 0 -33 -2 -58 -5 -55 -3 3 -12 65 -21 139 -46 398 -125
718 -298 1201 -51 145 -114 328 -140 408 -105 327 -322 686 -624 1029 l-38 45
-13 -134z"></path>
      <path d="M10281 11780 c-18 -4 -48 -22 -64 -39 -28 -27 -32 -38 -35 -101 -4
-70 -4 -70 34 -108 51 -51 106 -61 170 -33 60 27 88 86 78 162 -9 66 -40 103
-98 118 -25 6 -46 11 -48 10 -2 -1 -18 -5 -37 -9z"></path>
      <path d="M15370 11002 c0 -13 191 -22 445 -22 254 0 445 9 445 22 0 4 -200 8
-445 8 -245 0 -445 -4 -445 -8z"></path>
      <path d="M5917 10505 c-335 -240 -480 -388 -711 -732 -81 -120 -181 -267 -222
-328 -286 -416 -479 -856 -625 -1424 -69 -269 -238 -1156 -299 -1571 -28 -188
-42 -250 -116 -500 -108 -369 -156 -541 -152 -546 2 -2 37 108 78 244 40 136
95 315 122 397 l48 150 49 33 c87 59 326 254 466 382 278 253 546 569 711 840
127 209 285 581 254 600 -6 4 -84 26 -173 50 -89 24 -166 45 -171 48 -4 2 39
24 97 47 177 71 304 148 345 210 11 17 23 55 26 85 10 78 61 326 107 519 22
90 38 165 36 167 -2 2 -57 4 -123 5 -65 1 -141 5 -169 8 l-50 7 37 7 c57 12
189 82 242 128 76 67 107 144 165 414 45 209 155 834 148 842 -2 1 -55 -36
-120 -82z"></path>
      <path d="M15180 10263 c-61 -61 -77 -114 -91 -293 -11 -140 -5 -452 10 -491 4
-14 10 94 14 267 3 159 11 318 17 354 14 80 54 155 100 186 25 18 30 24 16 24
-10 0 -40 -21 -66 -47z"></path>
      <path d="M9212 9515 c3 -3 59 -10 124 -16 249 -20 475 -58 712 -118 112 -29
149 -28 70 2 -129 48 -341 96 -541 122 -111 14 -377 21 -365 10z"></path>
      <path d="M9020 9361 c28 -17 1020 -208 1180 -226 37 -4 50 -3 40 3 -21 14
-345 80 -766 157 -365 67 -481 84 -454 66z"></path>
      <path d="M12710 9224 c0 -11 85 -144 92 -144 8 0 58 59 58 69 0 3 -34 23 -75
44 -41 20 -75 34 -75 31z"></path>
      <path d="M9290 9093 c0 -4 93 -26 206 -47 169 -31 415 -82 532 -111 12 -3 22
-1 22 4 0 20 -299 96 -510 130 -167 27 -250 35 -250 24z"></path>
      <path d="M11280 8926 c0 -2 17 -14 38 -26 484 -290 989 -537 1194 -585 34 -8
117 -19 183 -25 273 -24 345 -33 450 -60 122 -31 259 -82 378 -142 92 -46 126
-46 46 -1 -227 130 -469 201 -764 223 -77 6 -179 17 -227 25 -179 30 -485 166
-1030 458 -247 132 -268 142 -268 133z"></path>
      <path d="M1012 8573 c64 -93 169 -202 261 -271 78 -58 223 -135 317 -169 36
-12 63 -23 60 -24 -3 -1 -74 -13 -158 -28 l-153 -26 72 -105 c220 -322 431
-472 666 -474 40 -1 73 -3 73 -6 -1 -3 -49 -25 -108 -50 -89 -38 -106 -49
-104 -65 5 -28 127 -251 214 -389 225 -358 584 -834 982 -1305 l145 -172 16
-77 c9 -42 23 -97 30 -122 23 -78 17 -7 -10 115 -13 63 -27 143 -30 178 -40
428 -372 1326 -639 1726 -224 335 -552 710 -799 912 -249 205 -506 340 -777
409 -119 30 -118 30 -58 -57z"></path>
      <path d="M7621 8608 c7 -13 51 -88 99 -168 48 -80 122 -211 165 -292 77 -145
108 -188 80 -107 -46 129 -315 589 -346 589 -6 0 -5 -9 2 -22z"></path>
      <path d="M13500 8403 l0 -56 168 -171 c220 -225 333 -367 381 -478 51 -119 55
-457 8 -639 -44 -167 -108 -269 -199 -315 -69 -35 -185 -57 -279 -52 l-79 3 0
-1027 0 -1028 265 0 265 0 0 -346 0 -347 -37 7 c-21 4 -87 15 -148 25 -96 16
-770 201 -1322 363 l-182 53 -51 147 c-87 257 -228 586 -316 735 l-25 43 -58
-30 c-230 -116 -614 -235 -926 -288 -277 -47 -403 -56 -775 -56 -368 0 -477 7
-805 55 -354 51 -855 175 -1164 288 -47 17 -85 30 -86 28 -1 -1 -32 -53 -68
-114 -135 -229 -248 -480 -323 -718 -20 -66 -41 -124 -46 -129 -4 -6 -119 -18
-255 -28 -523 -37 -1037 -87 -1363 -134 -673 -96 -917 -220 -1027 -522 -37
-100 -53 -201 -53 -327 l0 -113 -689 -7 c-379 -4 -999 -4 -1377 0 -508 6 -685
5 -680 -4 5 -8 373 -11 1377 -11 753 0 1369 -2 1369 -4 0 -2 7 -40 15 -83 93
-489 530 -914 1220 -1186 172 -68 339 -118 521 -156 279 -58 214 -56 1608 -56
l1290 0 12 45 c7 25 45 171 85 325 39 154 73 281 73 282 1 1 83 -11 181 -28
99 -16 194 -32 211 -34 l31 -5 6 -173 c4 -94 7 -206 7 -249 l0 -76 103 -7
c153 -11 1981 1 2217 14 415 23 829 66 1035 107 598 120 1093 621 1154 1167 6
53 11 101 11 107 0 7 464 10 1484 10 979 0 1487 3 1491 10 4 7 -494 10 -1487
10 l-1493 0 -13 77 c-20 129 -103 274 -212 373 l-39 35 302 463 302 462 935 0
935 0 53 -83 c29 -45 227 -349 440 -675 418 -640 412 -632 488 -617 19 3 49
19 67 35 l32 28 3 656 2 656 170 0 170 0 0 1910 0 1910 -2455 0 -2455 0 0 -57z
m1570 -3767 c0 -6 -569 -878 -579 -889 -5 -5 -39 12 -77 36 -96 62 -124 75
-244 118 l-105 37 -3 351 -2 351 505 0 c278 0 505 -2 505 -4z m2970 -636 l0
-640 -27 -29 c-16 -16 -37 -32 -48 -35 -55 -16 -69 4 -510 681 -234 359 -425
655 -425 658 0 3 227 5 505 5 l505 0 0 -640z m-10270 48 c182 -25 273 -70 535
-263 256 -189 420 -298 481 -319 33 -12 104 -21 214 -27 91 -4 181 -11 200
-15 63 -11 131 -57 219 -150 l86 -91 364 34 c200 18 366 31 368 29 3 -2 7
-210 10 -462 6 -433 5 -457 -11 -451 -64 25 -734 147 -804 147 -21 0 -46 6
-57 14 -28 19 -427 230 -1000 529 -269 140 -564 296 -655 346 -91 50 -263 141
-383 202 l-218 110 7 37 c26 144 78 225 181 279 128 69 248 82 463 51z"></path>
      <path d="M6779 6729 c-93 -13 -212 -47 -300 -84 -82 -34 -165 -83 -157 -91 3
-2 54 17 114 42 124 52 248 88 379 109 50 8 94 15 98 15 5 0 5 5 2 10 -7 11
-55 11 -136 -1z"></path>
      <path d="M9661 5720 c19 -11 469 -57 639 -65 166 -8 138 8 -50 29 -358 39
-622 56 -589 36z"></path>
      <path d="M3494 5415 c0 -55 1 -76 3 -47 2 29 2 74 0 100 -2 26 -3 2 -3 -53z"></path>
      <path d="M3781 5374 c0 -11 3 -14 6 -6 3 7 2 16 -1 19 -3 4 -6 -2 -5 -13z"></path>
      <path d="M3761 5304 c0 -11 3 -14 6 -6 3 7 2 16 -1 19 -3 4 -6 -2 -5 -13z"></path>
      <path d="M2795 4791 c-269 -14 33 -21 859 -20 867 0 1125 8 801 22 -181 8
-1491 6 -1660 -2z"></path>
    </g>
  </symbol>
</svg>