<?xml version="1.0" standalone="no"?>
<!DOCTYPE svg PUBLIC "-//W3C//DTD SVG 20010904//EN"
 "http://www.w3.org/TR/2001/REC-SVG-20010904/DTD/svg10.dtd">
<svg version="1.0" xmlns="http://www.w3.org/2000/svg"
 width="2000.000000pt" height="2000.000000pt" viewBox="0 0 2000.000000 2000.000000"
 preserveAspectRatio="xMidYMid meet">

<g transform="translate(0.000000,2000.000000) scale(0.100000,-0.100000)"
fill="#000000" stroke="none">
<path d="M6641 17384 c-94 -127 -181 -333 -226 -534 -33 -148 -29 -540 5 -540
10 0 65 68 102 126 115 180 194 448 205 694 6 121 -8 280 -27 310 -6 9 -22 -7
-59 -56z"/>
<path d="M5664 16908 c-25 -80 -30 -231 -10 -321 27 -119 84 -226 166 -310 44
-45 73 -68 79 -62 21 21 41 133 41 225 0 174 -53 316 -162 435 -87 95 -93 97
-114 33z"/>
<path d="M7431 16664 c-213 -55 -411 -299 -411 -507 l0 -49 38 7 c140 25 307
167 379 322 26 56 56 183 51 218 -3 22 -4 22 -57 9z"/>
<path d="M5060 15619 c-57 -16 -140 -51 -140 -59 0 -4 27 -33 60 -63 162 -150
413 -191 619 -101 l45 20 -58 57 c-64 63 -164 117 -261 142 -65 17 -210 19
-265 4z"/>
<path d="M17494 13823 l-91 -34 112 -292 c62 -161 201 -521 309 -802 108 -280
283 -733 387 -1005 217 -564 223 -578 247 -596 9 -7 36 -14 60 -14 54 0 92 35
92 86 0 19 -102 299 -244 666 -134 348 -364 946 -511 1328 -147 382 -268 696
-269 697 0 1 -42 -14 -92 -34z"/>
<path d="M11875 13736 c-18 -267 41 -474 154 -540 75 -43 177 -38 248 13 101
73 157 294 138 539 l-8 97 -18 -139 c-23 -182 -43 -268 -78 -341 -50 -105
-123 -149 -208 -126 -109 30 -166 162 -202 470 l-18 146 -8 -119z"/>
<path d="M10947 13740 c-7 -107 4 -269 24 -344 51 -188 200 -274 347 -200 86
43 141 146 162 307 11 89 13 233 3 292 -5 33 -10 15 -25 -105 -41 -326 -108
-450 -243 -450 -59 0 -98 21 -135 72 -53 72 -76 167 -118 473 l-8 60 -7 -105z"/>
<path d="M7603 13251 c48 -58 69 -105 65 -143 -7 -70 -95 -87 -448 -88 -491 0
-615 -30 -710 -170 -21 -30 -87 -156 -147 -280 -114 -232 -171 -322 -271 -424
-192 -197 -462 -278 -824 -248 -78 6 -143 10 -145 8 -10 -10 180 -37 297 -42
375 -18 634 97 839 375 40 54 104 168 181 325 69 139 134 256 153 278 78 83
157 98 617 118 206 9 310 19 361 35 43 14 13 -78 -48 -146 -117 -131 -424
-320 -698 -432 -176 -72 -290 -96 -355 -73 -48 16 -53 4 -7 -21 46 -25 187
-22 296 6 148 39 362 134 504 224 29 18 57 36 63 40 20 12 74 -47 74 -81 0
-138 -457 -449 -868 -590 -86 -29 -122 -36 -185 -37 -74 0 -80 2 -103 28 -28
33 -31 27 -7 -14 24 -40 65 -54 158 -53 174 2 464 111 693 261 l84 54 34 -26
c19 -14 37 -38 40 -52 25 -100 -226 -307 -591 -488 -215 -106 -332 -147 -443
-153 -75 -4 -87 -2 -114 18 -28 21 -29 21 -19 2 24 -44 56 -59 136 -61 90 -2
156 9 285 51 171 55 429 190 537 280 90 76 200 196 221 240 33 71 29 113 -12
154 -19 19 -41 34 -50 34 -27 0 -18 14 34 54 168 128 243 284 172 355 -15 15
-34 30 -42 34 -11 4 -5 14 25 39 84 69 166 153 197 202 27 41 33 62 35 109 1
55 4 61 32 78 71 43 62 116 -25 206 -42 43 -47 47 -21 14z"/>
<path d="M12335 7932 c-90 -72 -217 -172 -303 -239 -14 -12 -13 -16 9 -40 14
-16 68 -82 119 -148 l94 -120 -48 -355 c-26 -195 -139 -1043 -252 -1883 l-204
-1528 216 -390 c119 -214 218 -388 219 -387 2 2 91 153 198 335 171 293 194
337 192 370 -2 21 -6 191 -9 378 -4 187 -9 419 -11 515 -3 96 -10 375 -15 620
-16 725 -20 894 -25 1105 -3 110 -7 317 -10 460 -3 143 -8 371 -11 507 l-7
248 74 82 c41 46 96 107 124 136 27 29 51 57 53 62 3 9 -278 360 -288 360 -3
0 -54 -39 -115 -88z"/>
<path d="M4493 5332 c-12 -9 -27 -32 -34 -49 -9 -27 -8 -39 8 -70 17 -37 26
-41 288 -151 149 -63 504 -213 790 -334 286 -121 529 -222 540 -225 17 -3 25
9 56 84 l35 88 -220 93 c-122 52 -315 133 -431 182 -409 171 -791 333 -868
366 -87 38 -131 42 -164 16z"/>
</g>
</svg>
