<?xml version="1.0" standalone="no"?>
<!DOCTYPE svg PUBLIC "-//W3C//DTD SVG 20010904//EN"
 "http://www.w3.org/TR/2001/REC-SVG-20010904/DTD/svg10.dtd">
<svg version="1.0" xmlns="http://www.w3.org/2000/svg"
 width="2000.000000pt" height="2000.000000pt" viewBox="0 0 2000.000000 2000.000000"
 preserveAspectRatio="xMidYMid meet">

<g transform="translate(0.000000,2000.000000) scale(0.100000,-0.100000)"
fill="#000000" stroke="none">
<path d="M13740 18299 c-115 -25 -187 -52 -263 -103 -61 -41 -236 -192 -259
-224 -17 -25 -46 -39 -104 -52 -73 -17 -118 -5 -175 46 -66 59 -87 57 -103 -9
-15 -64 30 -152 106 -208 l41 -29 -45 -20 c-65 -28 -150 -48 -248 -55 -97 -8
-137 -25 -146 -59 -14 -59 29 -99 136 -124 67 -15 69 -17 53 -35 -9 -10 -17
-34 -17 -54 0 -28 7 -42 34 -65 30 -28 37 -30 83 -24 39 4 48 3 39 -6 -7 -7
-12 -29 -12 -49 0 -60 66 -98 119 -69 16 8 25 -5 74 -108 30 -64 70 -153 88
-197 l34 -80 12 225 c6 124 11 237 12 252 1 23 6 27 44 33 219 32 344 111 517
325 149 183 242 212 477 144 85 -25 136 -51 205 -107 l37 -30 -5 -161 c-6
-145 -4 -175 20 -302 33 -177 67 -298 112 -394 43 -92 59 -110 95 -110 23 0
32 8 49 40 25 48 50 60 130 60 69 0 60 -23 99 240 l26 175 68 -3 c37 -2 67 0
67 5 -1 4 -7 19 -15 33 -22 39 -19 51 10 40 16 -6 34 -6 50 0 34 13 33 46 -5
120 l-30 59 35 11 c42 14 85 47 85 65 0 8 -25 30 -55 51 -73 48 -131 117 -151
179 -40 122 -114 225 -191 263 -97 49 -250 55 -331 13 -24 -12 -45 -21 -47
-19 -1 2 -9 24 -18 50 -44 133 -178 243 -335 277 -85 18 -293 13 -402 -10z"/>
<path d="M10646 18195 c-376 -78 -678 -329 -815 -677 -89 -225 -95 -524 -17
-754 97 -286 333 -542 604 -654 153 -64 250 -83 427 -84 175 0 280 18 416 74
135 55 285 155 378 254 19 20 44 37 55 37 17 1 18 2 3 6 -11 3 -42 -18 -90
-62 -147 -135 -303 -221 -496 -273 -84 -22 -116 -25 -256 -25 -140 0 -172 3
-257 26 -403 107 -699 405 -801 807 -18 71 -21 112 -21 250 1 144 4 177 27
262 102 386 398 681 784 785 87 24 116 27 263 27 147 0 176 -3 265 -27 107
-29 251 -93 343 -154 82 -54 222 -193 280 -276 84 -122 143 -257 178 -407 l13
-55 -5 50 c-3 28 -21 95 -39 150 -120 348 -403 607 -772 706 -102 28 -363 36
-467 14z"/>
<path d="M4780 17992 c-307 -17 -540 -76 -728 -183 -227 -131 -349 -234 -397
-334 -34 -73 -37 -170 -7 -237 24 -55 50 -66 121 -50 64 15 86 -1 83 -58 -2
-30 -14 -110 -27 -173 -30 -156 -15 -303 43 -411 29 -55 150 -182 195 -205 24
-13 36 -13 85 -2 118 28 126 27 160 -14 16 -21 40 -64 51 -96 24 -63 59 -99
98 -99 39 0 89 57 109 126 25 82 23 277 -5 454 -23 145 -40 207 -78 283 l-24
48 58 81 c80 112 161 197 243 258 l69 51 101 -11 c127 -15 314 -10 355 10 17
9 50 43 75 78 l45 62 60 -6 c55 -5 64 -9 108 -52 26 -26 64 -70 84 -99 20 -29
40 -50 44 -47 15 9 10 73 -10 122 -10 26 -24 65 -31 87 -16 53 -37 78 -91 105
-24 13 -68 45 -98 72 -195 178 -419 256 -691 240z"/>
<path d="M7710 17739 c-405 -48 -754 -350 -855 -740 -24 -92 -16 -91 11 1 50
170 126 302 243 424 127 131 271 218 448 273 81 25 102 27 263 27 154 1 184
-2 255 -22 163 -47 310 -130 427 -241 202 -190 309 -437 311 -716 1 -171 -28
-294 -106 -450 -100 -201 -261 -357 -470 -455 -153 -72 -218 -85 -417 -84
-147 0 -187 4 -253 22 -156 43 -311 130 -431 242 -35 33 -66 60 -69 60 -4 0
24 -28 61 -63 121 -114 262 -196 419 -244 81 -24 102 -27 268 -27 159 -1 190
2 265 22 173 48 324 135 451 261 261 259 356 626 259 989 -58 212 -217 433
-402 555 -198 131 -453 193 -678 166z"/>
<path d="M14019 17253 c-39 -21 -55 -34 -57 -52 -4 -23 -3 -24 50 -16 29 4
103 10 165 14 61 3 115 9 119 13 12 13 -27 47 -65 58 -70 19 -153 12 -212 -17z"/>
<path d="M11933 17230 c0 -25 2 -35 4 -22 2 12 2 32 0 45 -2 12 -4 2 -4 -23z"/>
<path d="M13333 17231 c-41 -19 -71 -55 -54 -65 5 -3 72 -3 150 1 137 6 142 7
139 27 -7 52 -151 75 -235 37z"/>
<path d="M10364 17186 c-43 -19 -64 -53 -64 -101 0 -124 167 -153 211 -37 33
86 -63 175 -147 138z"/>
<path d="M10812 17188 c-64 -17 -91 -102 -53 -164 55 -90 201 -47 201 59 0 79
-69 128 -148 105z"/>
<path d="M11264 17186 c-43 -19 -64 -53 -64 -102 0 -81 80 -134 153 -99 35 16
67 64 67 100 0 26 -28 79 -48 91 -31 20 -76 24 -108 10z"/>
<path d="M11943 17120 c0 -25 2 -35 4 -22 2 12 2 32 0 45 -2 12 -4 2 -4 -23z"/>
<path d="M14055 17036 c-34 -15 -71 -53 -62 -63 4 -3 34 2 66 12 58 17 87 17
169 0 47 -11 43 19 -8 45 -45 23 -120 26 -165 6z"/>
<path d="M11933 17000 c0 -25 2 -35 4 -22 2 12 2 32 0 45 -2 12 -4 2 -4 -23z"/>
<path d="M13360 17029 c-14 -5 -35 -20 -47 -31 -27 -26 -31 -53 -6 -44 88 34
118 39 167 29 28 -6 59 -15 70 -19 28 -11 17 24 -15 48 -31 23 -131 33 -169
17z"/>
<path d="M4800 17005 c-44 -14 -100 -56 -100 -75 0 -13 37 -13 97 0 26 6 88
14 137 18 99 8 116 21 65 48 -45 23 -143 27 -199 9z"/>
<path d="M5502 16999 c-46 -23 -72 -57 -53 -69 7 -3 46 -1 89 7 42 7 103 16
135 19 47 4 58 9 55 22 -9 45 -150 58 -226 21z"/>
<path d="M13751 16988 c-76 -193 -181 -502 -181 -532 0 -9 9 -25 20 -36 17
-17 33 -20 100 -20 93 0 107 16 23 25 -85 9 -103 14 -103 28 0 6 16 57 35 112
34 95 115 359 129 418 8 33 -11 37 -23 5z"/>
<path d="M11922 16925 c0 -16 2 -22 5 -12 2 9 2 23 0 30 -3 6 -5 -1 -5 -18z"/>
<path d="M6832 16880 c0 -19 2 -27 5 -17 2 9 2 25 0 35 -3 9 -5 1 -5 -18z"/>
<path d="M5545 16888 c-32 -17 -65 -50 -65 -64 0 -9 18 -5 56 13 51 23 65 25
133 20 l76 -6 -28 24 c-24 21 -38 25 -90 25 -34 0 -71 -6 -82 -12z"/>
<path d="M11911 16874 c0 -11 3 -14 6 -6 3 7 2 16 -1 19 -3 4 -6 -2 -5 -13z"/>
<path d="M11901 16834 c0 -11 3 -14 6 -6 3 7 2 16 -1 19 -3 4 -6 -2 -5 -13z"/>
<path d="M6824 16740 c0 -52 1 -74 3 -47 2 26 2 68 0 95 -2 26 -3 4 -3 -48z"/>
<path d="M13356 16809 c-52 -41 -21 -119 47 -119 41 0 67 26 67 66 0 35 -8 47
-37 63 -31 16 -47 14 -77 -10z"/>
<path d="M13996 16807 c-33 -33 -33 -61 -1 -92 33 -34 77 -33 104 1 12 15 21
35 21 44 0 28 -32 59 -67 66 -26 5 -37 1 -57 -19z"/>
<path d="M5260 16802 c0 -16 120 -257 202 -405 32 -59 58 -115 56 -125 -2 -10
-28 -24 -73 -39 l-70 -23 59 5 c33 3 71 11 85 18 49 23 41 52 -75 265 -113
209 -183 325 -184 304z"/>
<path d="M7336 16784 c-41 -42 -39 -106 4 -146 81 -75 208 18 159 115 -32 62
-116 78 -163 31z"/>
<path d="M7761 16789 c-50 -47 -50 -111 1 -154 39 -33 87 -33 126 0 16 14 33
37 36 51 9 36 -10 89 -39 108 -35 23 -96 21 -124 -5z"/>
<path d="M8177 16799 c-21 -12 -47 -61 -47 -89 0 -87 109 -132 171 -71 23 24
29 38 29 74 0 38 -5 49 -31 71 -32 28 -88 35 -122 15z"/>
<path d="M4905 16785 c-5 -2 -22 -6 -37 -9 -32 -7 -88 -52 -88 -71 0 -10 15
-7 56 12 50 23 65 25 130 20 41 -3 74 -1 74 4 0 20 -106 55 -135 44z"/>
<path d="M11871 16734 c-1 -11 6 -29 15 -40 8 -10 12 -13 9 -6 -4 8 -11 26
-15 40 -7 22 -8 23 -9 6z"/>
<path d="M11910 16650 c6 -11 13 -20 16 -20 2 0 0 9 -6 20 -6 11 -13 20 -16
20 -2 0 0 -9 6 -20z"/>
<path d="M5606 16638 c-22 -31 -20 -64 4 -88 41 -41 110 -13 110 45 0 43 -22
65 -65 65 -24 0 -39 -7 -49 -22z"/>
<path d="M14892 16648 c-7 -7 -12 -21 -12 -32 0 -20 1 -20 18 2 16 20 19 21
39 7 48 -34 54 -145 11 -200 -17 -22 -27 -26 -55 -23 -39 5 -39 -12 0 -26 74
-27 144 112 106 211 -23 61 -77 91 -107 61z"/>
<path d="M6832 16595 c0 -16 2 -22 5 -12 2 9 2 23 0 30 -3 6 -5 -1 -5 -18z"/>
<path d="M4996 16555 c-38 -38 -22 -98 29 -111 56 -14 103 53 71 101 -19 29
-75 35 -100 10z"/>
<path d="M6842 16540 c0 -14 2 -19 5 -12 2 6 2 18 0 25 -3 6 -5 1 -5 -13z"/>
<path d="M6851 16494 c0 -11 3 -14 6 -6 3 7 2 16 -1 19 -3 4 -6 -2 -5 -13z"/>
<path d="M11738 16403 c7 -3 16 -2 19 1 4 3 -2 6 -13 5 -11 0 -14 -3 -6 -6z"/>
<path d="M6860 16340 c-6 -11 -8 -20 -6 -20 3 0 10 9 16 20 6 11 8 20 6 20 -3
0 -10 -9 -16 -20z"/>
<path d="M13886 16305 c-139 -59 -146 -63 -129 -73 6 -4 17 -26 24 -50 19 -65
57 -92 128 -92 100 0 168 68 157 157 -6 49 -31 113 -43 112 -4 0 -66 -25 -137
-54z"/>
<path d="M5185 16075 c-43 -111 21 -187 145 -176 13 1 31 6 40 11 9 5 -1 7
-26 3 -23 -3 -58 0 -78 7 -51 17 -70 48 -64 110 3 28 7 53 10 55 3 3 49 -11
102 -30 96 -35 138 -44 102 -24 -16 10 -205 89 -212 89 -1 0 -10 -20 -19 -45z"/>
<path d="M6958 16093 c7 -3 16 -2 19 1 4 3 -2 6 -13 5 -11 0 -14 -3 -6 -6z"/>
<path d="M7018 16083 c7 -3 16 -2 19 1 4 3 -2 6 -13 5 -11 0 -14 -3 -6 -6z"/>
<path d="M4365 15870 c-11 -5 -37 -9 -57 -9 -27 -1 -38 -6 -43 -20 -9 -29 -71
-80 -124 -103 -70 -30 -107 -63 -126 -113 -33 -86 1 -187 76 -225 46 -24 132
-26 173 -5 37 20 36 20 36 -22 0 -80 85 -163 167 -163 65 0 65 -17 -6 340 -36
182 -68 330 -71 329 -3 0 -14 -4 -25 -9z"/>
<path d="M14180 15694 c-142 -84 -306 -139 -448 -151 l-73 -6 3 -66 3 -66 60
-3 c155 -8 313 54 425 167 58 59 134 173 113 170 -4 -1 -42 -21 -83 -45z"/>
<path d="M4395 15056 c-322 -122 -659 -268 -733 -319 -162 -109 -312 -313
-356 -484 -48 -183 -35 -544 29 -819 17 -75 40 -130 265 -644 97 -223 180
-418 184 -435 4 -16 12 -47 17 -67 l10 -38 35 35 c19 19 48 42 64 50 25 13 29
19 20 35 -5 10 -10 23 -10 28 0 9 937 543 964 550 6 1 35 -38 65 -88 l53 -90
32 23 c17 13 289 207 605 432 316 224 609 436 650 472 123 103 159 166 190
332 12 63 28 126 36 141 15 28 382 384 405 392 21 8 -106 136 -197 199 -176
121 -381 184 -868 264 -189 32 -185 32 -185 -2 0 -45 -56 -149 -105 -197 -25
-25 -71 -57 -103 -73 -54 -27 -64 -28 -192 -28 -110 0 -150 5 -215 23 -88 26
-203 80 -285 135 -95 64 -209 169 -215 199 -4 15 -10 28 -13 28 -4 -1 -70 -25
-147 -54z"/>
<path d="M15860 14929 c-124 -71 -252 -236 -294 -378 -29 -98 -17 -111 18 -19
18 48 48 112 67 144 45 76 138 175 216 231 35 25 63 47 63 49 0 9 -18 2 -70
-27z"/>
<path d="M7000 14440 c0 -45 -21 -87 -89 -175 -74 -96 -85 -123 -77 -179 9
-58 45 -102 91 -110 31 -6 168 12 240 32 36 10 36 11 -7 142 -29 91 -109 263
-142 305 -15 19 -15 19 -16 -15z"/>
<path d="M12744 14234 c-10 -68 2 -1106 16 -1314 17 -259 31 -276 24 -30 -3
113 -9 470 -14 793 -5 324 -11 591 -14 594 -2 3 -8 -17 -12 -43z"/>
<path d="M15570 14019 c0 -100 64 -550 115 -804 37 -188 108 -473 113 -453 2
9 -19 131 -47 270 -68 346 -76 391 -126 722 -42 276 -55 340 -55 265z"/>
<path d="M10606 13542 c-8 -16 -23 -60 -32 -98 -9 -38 -21 -74 -25 -80 -5 -5
-14 -42 -20 -82 -7 -40 -16 -72 -20 -72 -16 0 -124 55 -132 67 -25 40 -103
121 -143 150 -56 39 -117 45 -155 14 l-23 -18 47 -64 c69 -95 76 -103 83 -96
4 4 -14 38 -39 77 -26 38 -47 74 -47 80 0 17 49 23 80 10 29 -12 180 -163 180
-179 0 -5 33 -20 73 -35 l72 -26 1 -78 c0 -54 5 -88 18 -115 23 -48 28 -44 14
13 -15 69 -3 180 37 340 44 172 56 200 90 200 57 0 70 -94 39 -277 -16 -92
-16 -96 5 -159 11 -35 21 -71 21 -80 0 -8 4 -13 9 -10 9 6 -2 86 -17 126 -7
17 -5 45 3 89 8 34 16 106 20 160 5 81 3 101 -12 131 -16 32 -23 35 -65 38
-43 3 -48 1 -62 -26z"/>
<path d="M7286 13379 c-73 -34 -158 -63 -260 -89 -295 -75 -331 -99 -637 -439
-131 -146 -237 -267 -235 -269 5 -4 526 -31 611 -32 l51 0 -20 160 c-10 88
-17 163 -14 166 7 7 704 124 741 124 15 0 27 4 27 9 0 10 -138 389 -149 408
-4 9 -37 -2 -115 -38z"/>
<path d="M10828 13239 c-10 -5 -22 -18 -28 -28 -18 -35 -52 -377 -36 -360 3 2
17 81 31 174 15 94 31 176 37 183 17 20 59 10 81 -20 18 -24 19 -41 18 -213
l-2 -187 43 35 c66 53 107 70 183 75 63 4 107 -3 158 -23 9 -4 17 -3 17 3 0
20 -94 47 -165 47 -69 0 -78 -3 -198 -63 -4 -2 -7 63 -5 145 3 166 -6 204 -53
228 -33 17 -57 18 -81 4z"/>
<path d="M15965 12200 c3 -5 18 -10 32 -10 72 0 212 -53 302 -114 30 -20 57
-34 60 -30 11 11 -81 84 -143 114 -34 16 -82 34 -106 39 -59 14 -153 14 -145
1z"/>
<path d="M3846 12069 c10 -52 20 -67 28 -41 5 15 1 31 -13 48 l-21 27 6 -34z"/>
<path d="M14820 12040 c21 -19 34 -21 83 -18 83 6 100 28 20 28 -33 0 -76 3
-94 6 l-34 5 25 -21z"/>
<path d="M5470 11818 c-63 -66 -151 -149 -195 -185 -151 -122 -334 -191 -475
-180 -85 7 -154 34 -236 92 -64 46 -67 47 -119 40 -41 -5 -53 -10 -48 -21 8
-22 -23 -62 -67 -84 -44 -22 -140 -27 -187 -9 -51 19 -82 58 -95 121 -7 32
-17 58 -24 58 -6 0 -31 11 -56 24 l-44 23 1 -81 c1 -44 -2 -144 -6 -221 -4
-77 -10 -221 -14 -320 -3 -99 -8 -209 -10 -245 -2 -36 -6 -157 -10 -270 -8
-304 -15 -390 -31 -438 -18 -55 -18 -92 1 -140 14 -35 13 -62 -15 -345 l-30
-306 176 -1518 c96 -835 179 -1558 185 -1608 5 -49 13 -371 19 -715 6 -344 15
-693 20 -776 7 -108 59 -466 184 -1265 97 -613 178 -1129 181 -1146 6 -32 7
-33 59 -33 64 0 66 -4 66 -98 0 -105 4 -111 53 -100 49 11 121 4 171 -17 34
-14 66 -45 34 -32 -40 15 -139 28 -192 25 l-59 -3 -41 -130 -42 -130 -1147 -3
c-1089 -2 -1146 -1 -1140 15 3 10 28 67 56 126 27 60 47 111 44 113 -9 9 -85
-137 -104 -198 l-17 -58 -53 0 -53 0 0 43 c0 62 -28 281 -40 309 -12 28 -5
-79 16 -231 8 -58 14 -108 14 -113 0 -5 -14 -8 -31 -6 -28 3 -39 15 -93 100
-68 107 -115 169 -116 152 0 -6 35 -65 79 -130 l78 -119 -436 -5 c-240 -3 323
-6 1252 -8 928 -1 1687 -4 1687 -6 0 -2 -7 -23 -15 -46 -8 -23 -15 -46 -15
-50 0 -4 20 -7 44 -7 53 -1 95 -22 130 -63 38 -46 34 -74 -5 -32 -44 47 -71
62 -126 71 l-50 8 -23 -71 c-12 -39 -25 -77 -27 -83 -4 -9 7 -13 36 -13 48 0
115 -31 131 -60 13 -25 16 -25 -54 10 -32 17 -73 30 -91 30 l-32 0 -36 -119
c-20 -65 -37 -133 -37 -152 1 -75 90 -124 156 -86 35 19 374 328 555 504 l166
163 3757 0 c2761 0 3756 -3 3756 -11 0 -8 64 -9 233 -5 452 13 2807 20 2807 8
0 -10 -64 -352 -74 -393 -3 -13 5 -15 49 -11 61 5 122 -21 154 -67 34 -48 24
-58 -17 -18 -39 38 -109 67 -163 67 -26 0 -28 -4 -39 -57 -7 -32 -15 -74 -19
-94 l-8 -36 42 5 c53 5 105 -11 135 -43 28 -30 25 -31 -31 -5 -37 16 -149 29
-149 16 0 -2 -11 -58 -25 -126 -34 -166 -33 -184 9 -226 27 -27 42 -34 72 -34
22 0 51 8 66 18 67 44 683 774 722 857 9 19 16 59 16 94 l0 61 1073 2 c589 2
976 4 860 5 -117 2 -213 6 -213 10 0 3 23 58 51 121 28 62 48 116 46 119 -14
13 -107 -186 -107 -228 0 -16 -8 -19 -55 -19 -63 0 -60 -4 -69 120 -3 41 -11
111 -18 155 -12 77 -13 78 -16 32 -2 -26 4 -98 12 -159 21 -151 22 -148 -14
-148 -21 0 -34 7 -46 28 -45 72 -147 223 -155 228 -21 13 -4 -20 71 -134 l79
-122 -748 0 -748 0 -6 107 c-4 58 -7 144 -7 190 l0 83 83 1 c45 1 94 4 108 8
l25 6 -177 1840 c-221 2302 -197 2053 -410 4135 -171 1671 -215 2078 -229
2100 -3 6 -78 -13 -183 -45 -446 -138 -820 -222 -1222 -277 -150 -20 -210 -23
-520 -23 -314 1 -365 3 -494 23 -256 40 -521 117 -718 207 l-71 33 -7 -96
c-16 -207 1 -503 54 -957 130 -1110 772 -6494 787 -6602 l6 -42 52 -3 51 -3 2
-55 c5 -102 11 -120 40 -120 30 0 103 -68 103 -96 0 -15 -4 -14 -27 8 -34 31
-93 68 -111 68 -7 0 -46 -14 -88 -32 l-75 -31 26 -25 c33 -30 60 -91 47 -104
-6 -6 -19 7 -35 35 -15 24 -38 52 -52 61 -25 16 -28 16 -99 -16 l-73 -34 23
-34 c23 -33 34 -110 16 -110 -4 0 -15 21 -24 48 -34 93 -27 93 -176 18 -163
-82 -248 -133 -334 -202 l-67 -54 -545 0 c-515 0 -545 1 -539 18 3 9 28 66 55
125 27 60 47 114 45 120 -5 15 -104 -189 -112 -230 l-7 -33 -88 0 -88 0 -28
48 c-43 75 -146 223 -151 218 -7 -7 50 -104 112 -191 l54 -75 -1734 0 -1735 0
-41 40 c-63 61 -147 113 -333 206 -125 62 -172 81 -182 73 -7 -6 -23 -35 -35
-65 -13 -30 -26 -54 -31 -54 -18 0 -7 69 17 105 15 20 25 38 23 39 -17 12
-133 56 -147 56 -21 0 -63 -43 -85 -87 -21 -42 -26 -41 -26 3 0 28 8 44 35 71
l34 34 -34 15 c-19 8 -52 21 -72 30 -52 21 -92 11 -146 -36 -50 -45 -66 -41
-37 8 13 21 41 42 83 62 35 16 69 30 75 30 7 0 12 6 12 13 0 6 7 100 15 207
42 558 132 1909 170 2555 33 558 32 817 -15 2140 -18 509 -60 1596 -76 1970
-4 89 -24 272 -49 453 -34 236 -41 310 -33 333 6 17 8 78 6 137 -4 93 -8 114
-32 162 -26 49 -36 104 -98 510 -37 250 -75 509 -84 575 -9 66 -20 123 -26
126 -6 4 -29 10 -52 13 -107 18 -671 196 -1125 357 -106 38 -196 68 -200 68
-3 -1 -58 -56 -121 -121z m9058 -2932 c6 -7 189 -843 347 -1586 127 -602 269
-1312 294 -1480 11 -74 39 -259 61 -410 62 -411 528 -3183 546 -3242 4 -13 16
-18 39 -18 25 0 35 -5 40 -21 4 -11 10 -18 13 -17 84 46 181 55 240 24 19 -10
32 -19 30 -21 -2 -2 -33 1 -69 7 -58 10 -72 9 -138 -11 l-74 -22 7 -62 c3 -34
9 -101 12 -149 l7 -86 40 14 c51 18 158 18 202 0 19 -8 35 -16 35 -18 0 -8
-691 -9 -1102 -3 l-458 7 0 339 0 339 75 0 75 0 0 35 c0 46 -297 6195 -305
6309 l-6 89 41 -6 c23 -3 44 -8 48 -11z m-8692 -1591 l107 -1220 -2 -485 -2
-485 35 -365 c20 -201 79 -822 131 -1379 66 -707 99 -1017 108 -1023 6 -4 27
-8 45 -8 l32 0 0 -270 0 -270 -470 0 -469 0 19 34 c21 34 26 99 29 344 l1 102
29 0 29 0 6 182 c4 101 15 566 26 1033 11 468 25 990 30 1160 16 505 29 1008
35 1370 9 509 31 877 120 2015 35 450 46 557 52 510 2 -14 51 -574 109 -1245z
m8493 -4949 c65 -50 -7 -156 -76 -111 -36 24 -47 62 -28 92 26 40 67 48 104
19z m-7661 -28 c18 -18 15 -42 -9 -72 -24 -31 -72 -35 -101 -9 -17 16 -25 73
-11 86 11 12 108 8 121 -5z m9790 -230 c15 -13 16 -62 2 -89 -13 -24 -72 -26
-94 -3 -30 29 -15 93 24 107 18 6 50 -1 68 -15z m-11648 -274 c52 -24 120 -78
120 -96 0 -4 -28 10 -62 33 -34 22 -94 49 -133 60 -38 12 -74 22 -80 24 -5 2
15 4 45 4 39 1 71 -7 110 -25z m11197 -269 c53 -16 144 -71 150 -92 2 -6 -31
6 -74 28 -54 28 -102 44 -156 52 -43 7 -75 16 -71 20 12 12 98 8 151 -8z"/>
<path d="M3891 11844 c0 -11 3 -14 6 -6 3 7 2 16 -1 19 -3 4 -6 -2 -5 -13z"/>
<path d="M13860 11791 c0 -11 77 -74 115 -93 17 -9 50 -19 75 -22 25 -4 57 -9
73 -12 15 -3 27 -1 27 4 0 9 -37 22 -115 42 -22 5 -67 28 -100 50 -61 41 -75
47 -75 31z"/>
<path d="M14544 11681 c-17 -10 -44 -39 -60 -65 -23 -36 -40 -50 -84 -68 -69
-28 -150 -104 -150 -140 0 -15 12 -41 26 -58 30 -35 45 -34 20 2 -40 56 -5
108 110 163 55 26 73 42 103 86 24 37 50 61 81 77 42 21 43 22 15 22 -17 0
-44 -9 -61 -19z"/>
<path d="M14791 11570 c-17 -22 -63 -65 -101 -96 -78 -63 -90 -85 -30 -54 50
26 114 82 152 134 48 67 31 80 -21 16z"/>
<path d="M14227 11564 l-88 -36 -145 17 c-149 17 -204 14 -262 -12 -35 -17
-62 -58 -62 -95 0 -18 5 -14 21 19 15 30 31 45 60 57 49 20 60 20 249 0 l155
-17 100 51 c116 59 100 68 -28 16z"/>
<path d="M9596 3123 c8 -35 85 -613 109 -818 13 -115 27 -230 30 -255 5 -43 3
-41 -40 46 -26 54 -66 115 -96 148 -55 60 -158 133 -227 159 -77 31 -68 18 18
-25 169 -84 316 -268 348 -434 6 -32 15 -79 21 -104 l10 -45 -4 45 c-3 25 -12
117 -20 205 -51 529 -126 1095 -145 1095 -5 0 -6 -8 -4 -17z"/>
<path d="M10045 2469 c-145 -76 -257 -281 -270 -494 l-5 -80 14 90 c7 50 19
110 26 135 36 131 124 257 229 328 68 45 70 55 6 21z"/>
<path d="M11585 2120 c16 -154 27 -250 35 -285 l8 -40 1 52 c1 65 -26 281 -39
302 -7 11 -8 2 -5 -29z"/>
</g>
</svg>
