<?xml version="1.0" standalone="no"?>
<!DOCTYPE svg PUBLIC "-//W3C//DTD SVG 20010904//EN"
 "http://www.w3.org/TR/2001/REC-SVG-20010904/DTD/svg10.dtd">
<svg version="1.0" xmlns="http://www.w3.org/2000/svg"
 width="2000.000000pt" height="2000.000000pt" viewBox="0 0 2000.000000 2000.000000"
 preserveAspectRatio="xMidYMid meet">

<g transform="translate(0.000000,2000.000000) scale(0.100000,-0.100000)"
fill="#000000" stroke="none">
<path d="M1940 15740 l0 -2650 1975 3 1975 2 3 2648 2 2647 -1977 0 -1978 0 0
-2650z m3778 3 l-3 -2448 -1795 0 -1795 0 -3 2448 -2 2447 1800 0 1800 0 -2
-2447z"/>
<path d="M3626 17035 c-8 -510 -3 -2341 6 -2351 9 -8 15 1653 9 2271 l-6 620
-9 -540z"/>
<path d="M3739 16850 c-7 -765 1 -2200 11 -2115 9 74 11 2159 2 2525 -7 296
-7 271 -13 -410z"/>
<path d="M3293 16120 c0 -795 2 -1429 6 -1410 10 50 12 2312 2 2610 -5 153 -8
-299 -8 -1200z"/>
<path d="M4076 17203 c-9 -441 -5 -2441 5 -2492 4 -20 7 613 8 1407 0 793 -1
1442 -3 1442 -1 0 -6 -161 -10 -357z"/>
<path d="M4187 16810 c-5 -415 -6 -1023 -2 -1350 3 -327 6 -637 5 -689 0 -52
3 -92 6 -88 10 9 15 1999 7 2457 l-8 425 -8 -755z"/>
<path d="M5086 17020 c-8 -530 -4 -2326 6 -2335 9 -9 16 1679 10 2280 l-7 600
-9 -545z"/>
<path d="M2727 16848 c-5 -389 -5 -1037 0 -1440 l8 -733 6 380 c8 491 8 1667
0 2135 l-6 365 -8 -707z"/>
<path d="M3176 16915 c-8 -565 -2 -2223 8 -2232 9 -10 16 1749 9 2277 l-9 595
-8 -640z"/>
<path d="M4636 16890 c-8 -642 -2 -2197 9 -2208 3 -3 5 28 5 69 0 41 3 457 5
924 3 468 2 1082 -3 1365 l-7 515 -9 -665z"/>
<path d="M4753 16115 c-1 -792 3 -1425 7 -1406 10 43 11 2309 1 2616 -4 136
-8 -360 -8 -1210z"/>
<path d="M2843 16110 c-1 -789 2 -1424 6 -1409 11 33 12 2428 2 2664 -4 102
-8 -443 -8 -1255z"/>
<path d="M3066 17298 c-9 -328 -5 -2578 5 -2603 4 -11 8 625 8 1413 1 787 -1
1432 -2 1432 -2 0 -7 -109 -11 -242z"/>
<path d="M4526 17278 c-9 -353 -6 -2543 4 -2577 5 -14 9 619 9 1407 1 787 -1
1432 -3 1432 -1 0 -6 -118 -10 -262z"/>
<path d="M4302 16105 c0 -786 3 -1421 7 -1410 11 26 12 2455 2 2675 -4 93 -8
-458 -9 -1265z"/>
<path d="M4976 17348 c-10 -272 -7 -2641 4 -2658 6 -10 10 505 10 1408 0 782
-2 1422 -3 1422 -2 0 -7 -78 -11 -172z"/>
<path d="M3516 17356 c-10 -229 -6 -2650 5 -2667 5 -8 9 557 9 1404 0 779 -2
1417 -3 1417 -2 0 -7 -69 -11 -154z"/>
<path d="M3852 16095 c-1 -888 2 -1414 8 -1405 11 18 12 2538 1 2710 -4 63 -8
-524 -9 -1305z"/>
<path d="M3401 16088 c0 -888 3 -1398 9 -1398 11 0 12 2644 0 2735 -4 33 -8
-569 -9 -1337z"/>
<path d="M3966 17403 c-11 -130 -7 -2713 4 -2713 7 0 10 472 10 1395 0 767 -2
1395 -4 1395 -1 0 -6 -34 -10 -77z"/>
<path d="M4861 16083 c-1 -923 2 -1393 9 -1393 12 0 12 2658 0 2735 -4 28 -8
-577 -9 -1342z"/>
<path d="M2950 16066 c0 -911 3 -1376 10 -1376 7 0 10 463 10 1369 0 903 -3
1372 -10 1376 -7 4 -10 -455 -10 -1369z"/>
<path d="M4417 17433 c-12 -11 -8 -2743 3 -2743 7 0 10 465 10 1375 0 756 -1
1375 -3 1375 -2 0 -7 -3 -10 -7z"/>
<path d="M8830 14773 c-105 -17 -236 -79 -323 -151 -231 -193 -305 -506 -181
-767 34 -74 106 -167 155 -204 l41 -29 -49 -7 c-134 -19 -293 -82 -332 -131
-55 -71 7 -154 105 -140 l43 6 -19 -33 c-60 -98 26 -206 156 -195 36 3 43 0
38 -12 -35 -93 -131 -398 -163 -520 -111 -427 -171 -833 -206 -1380 -18 -284
-82 -1186 -91 -1277 l-6 -63 114 41 c129 46 944 330 999 348 242 78 362 440
290 876 -29 171 -65 348 -96 461 -47 174 -51 355 -12 574 8 41 29 159 47 262
l34 187 40 7 c129 21 284 111 406 235 73 74 92 88 132 96 l47 10 -17 -25 -16
-25 71 5 c84 6 137 33 200 100 96 105 177 308 224 563 l19 100 -4 -165 c-5
-173 -25 -307 -71 -478 -14 -51 -25 -96 -25 -100 0 -4 28 -7 63 -8 34 0 94 -2
132 -4 120 -6 150 24 178 175 29 151 40 315 35 495 l-6 175 30 -65 c104 -226
139 -349 145 -511 l6 -126 -71 -5 c-85 -6 -137 -32 -137 -69 0 -22 5 -25 65
-32 36 -4 88 -14 115 -21 64 -18 176 -35 193 -29 23 9 13 50 -20 79 l-33 29 3
116 c1 64 -2 143 -7 175 -5 33 -8 60 -6 62 6 7 58 -154 95 -296 22 -84 53
-185 70 -225 35 -82 41 -137 61 -507 11 -213 7 -613 -7 -722 -6 -45 -5 -48 22
-58 16 -6 39 -21 51 -32 18 -17 36 -21 93 -22 69 -1 73 -2 106 -38 29 -32 34
-45 34 -87 0 -31 5 -53 15 -61 34 -28 13 -92 -35 -109 -27 -9 -30 -13 -21 -30
18 -34 13 -96 -11 -126 -49 -63 -170 -84 -258 -44 -25 11 -63 38 -86 60 -34
33 -46 39 -67 34 -14 -4 -33 -18 -41 -31 -32 -48 -142 -157 -201 -200 -34 -24
-97 -60 -141 -81 l-79 -38 -175 0 c-98 0 -208 6 -250 14 -194 34 -387 94 -532
167 -49 24 -88 39 -88 33 0 -35 151 -195 242 -257 78 -54 207 -110 313 -139
89 -23 119 -26 278 -27 l177 -1 0 -152 0 -152 38 -10 c20 -6 175 -44 344 -85
296 -73 941 -268 1063 -322 31 -13 57 -24 59 -24 2 0 -20 46 -49 103 -105 201
-187 446 -305 917 -91 364 -130 559 -151 755 -31 297 -74 568 -144 914 -19 96
-35 199 -35 228 0 87 -35 407 -56 506 -18 89 -73 233 -144 381 -99 206 -221
375 -336 467 -126 100 -425 230 -612 265 -120 22 -493 14 -629 -14 -51 -10
-96 -15 -100 -11 -4 4 -16 9 -27 11 -16 3 -19 13 -20 83 -1 94 -18 136 -82
199 -57 57 -182 121 -285 146 -79 19 -253 26 -329 13z m1336 -1375 c-10 -78
-34 -164 -68 -245 l-30 -73 -39 0 -39 0 63 128 c35 70 74 153 87 185 13 31 26
57 28 57 3 0 2 -24 -2 -52z"/>
<path d="M16492 14030 c-76 -18 -180 -63 -227 -98 -149 -111 -139 -317 22
-479 l36 -35 -57 -182 c-94 -295 -84 -281 -85 -131 -2 276 -69 442 -203 509
-108 54 -225 25 -283 -69 -29 -47 -30 -52 -30 -169 0 -105 3 -126 22 -162 62
-116 225 -184 375 -156 34 7 72 15 83 18 19 5 20 2 13 -113 -5 -87 -15 -152
-41 -248 -19 -71 -36 -128 -36 -125 -1 3 -6 43 -11 88 -25 193 -111 302 -241
302 -94 0 -252 -108 -299 -204 -71 -148 44 -289 211 -258 71 13 189 62 256
106 41 27 53 31 57 19 15 -38 3 -178 -28 -346 -71 -373 -120 -781 -130 -1067
-5 -164 -6 -168 35 255 21 217 54 465 89 665 35 196 91 454 103 471 7 9 39 55
72 101 l61 85 47 -43 c95 -85 248 -163 323 -164 93 0 165 50 184 130 21 87
-19 181 -114 268 -79 72 -133 95 -206 90 -98 -7 -178 -78 -216 -190 -9 -28
-46 -91 -81 -142 -56 -78 -64 -86 -58 -56 16 76 96 366 145 527 l52 171 47 12
c113 28 307 144 383 229 102 113 102 256 2 339 -65 54 -176 75 -272 52z"/>
<path d="M14524 13421 c-50 -23 -97 -78 -114 -134 -28 -96 -8 -250 43 -319 69
-94 251 -142 395 -105 49 13 52 13 66 -8 46 -70 308 -620 331 -695 7 -22 3
-21 -37 16 -24 22 -52 45 -61 50 -12 7 -21 32 -28 75 -32 204 -180 296 -344
214 -79 -40 -177 -137 -193 -191 -38 -131 22 -228 150 -241 83 -8 229 42 342
119 l39 27 34 -26 c74 -57 142 -146 174 -228 58 -149 187 -549 230 -717 24
-93 48 -168 52 -168 12 0 0 54 -53 250 -85 310 -174 569 -305 880 -76 181
-105 300 -105 427 l0 50 63 32 c84 42 177 118 216 177 121 183 53 408 -118
392 -61 -6 -147 -46 -190 -89 -98 -97 -108 -287 -25 -451 16 -32 27 -77 34
-140 5 -51 12 -109 16 -128 4 -21 -25 26 -73 120 -44 85 -95 179 -112 208 -27
47 -31 62 -31 130 0 89 -29 239 -58 305 -63 143 -220 221 -338 168z"/>
<path d="M10450 12811 c0 -32 81 -245 200 -524 56 -131 99 -245 96 -252 -2 -7
-31 -18 -63 -25 -118 -22 -153 -32 -153 -42 0 -15 188 1 227 19 60 28 56 55
-38 280 -102 245 -234 532 -254 552 -13 14 -15 13 -15 -8z"/>
<path d="M10750 12417 c0 -71 164 -128 276 -97 50 14 114 63 114 86 0 18 -3
18 -78 -6 -85 -27 -148 -25 -234 5 -84 29 -78 28 -78 12z"/>
<path d="M10145 12387 c-62 -25 -179 -27 -244 -3 -56 20 -61 20 -61 -4 0 -26
62 -66 125 -80 88 -20 201 11 245 67 38 49 18 55 -65 20z"/>
<path d="M2521 11940 c-7 -74 -14 -143 -16 -154 -2 -12 -6 -55 -10 -96 -3 -41
-8 -93 -10 -115 -27 -262 -46 -572 -46 -756 1 -170 8 -207 65 -303 34 -59 134
-156 212 -207 35 -23 64 -43 64 -44 0 -1 -88 19 -196 47 -108 27 -198 47 -200
45 -2 -2 -6 -64 -9 -138 -15 -402 -23 -537 -41 -666 -16 -119 -8 -152 51 -233
60 -82 229 -231 375 -332 24 -16 15 -17 -202 -17 l-228 -1 0 -105 c0 -269 87
-663 227 -1025 181 -469 488 -1007 823 -1442 79 -102 72 -67 90 -498 14 -352
16 -373 18 -230 1 69 -3 224 -8 345 -15 341 -15 342 8 475 12 69 31 196 42
283 l20 158 77 137 c482 859 811 1778 933 2602 28 192 29 188 -22 194 -40 5
-248 25 -272 26 -6 1 21 11 61 24 248 81 442 285 574 606 46 110 146 427 138
435 -3 2 -90 -9 -194 -25 -105 -17 -196 -30 -204 -30 -8 0 17 23 55 52 97 73
248 229 321 332 107 150 224 406 249 539 l7 39 -50 -26 c-152 -76 -343 -227
-519 -408 -218 -225 -373 -447 -541 -774 -152 -296 -249 -536 -409 -1008 -78
-230 -94 -289 -94 -339 0 -33 -2 -58 -5 -55 -3 3 -12 65 -21 139 -46 398 -125
718 -298 1201 -51 145 -114 328 -140 408 -105 327 -322 686 -624 1029 l-38 45
-13 -134z"/>
<path d="M10281 11780 c-18 -4 -48 -22 -64 -39 -28 -27 -32 -38 -35 -101 -4
-70 -4 -70 34 -108 51 -51 106 -61 170 -33 60 27 88 86 78 162 -9 66 -40 103
-98 118 -25 6 -46 11 -48 10 -2 -1 -18 -5 -37 -9z"/>
<path d="M15370 11002 c0 -13 191 -22 445 -22 254 0 445 9 445 22 0 4 -200 8
-445 8 -245 0 -445 -4 -445 -8z"/>
<path d="M5917 10505 c-335 -240 -480 -388 -711 -732 -81 -120 -181 -267 -222
-328 -286 -416 -479 -856 -625 -1424 -69 -269 -238 -1156 -299 -1571 -28 -188
-42 -250 -116 -500 -108 -369 -156 -541 -152 -546 2 -2 37 108 78 244 40 136
95 315 122 397 l48 150 49 33 c87 59 326 254 466 382 278 253 546 569 711 840
127 209 285 581 254 600 -6 4 -84 26 -173 50 -89 24 -166 45 -171 48 -4 2 39
24 97 47 177 71 304 148 345 210 11 17 23 55 26 85 10 78 61 326 107 519 22
90 38 165 36 167 -2 2 -57 4 -123 5 -65 1 -141 5 -169 8 l-50 7 37 7 c57 12
189 82 242 128 76 67 107 144 165 414 45 209 155 834 148 842 -2 1 -55 -36
-120 -82z"/>
<path d="M15180 10263 c-61 -61 -77 -114 -91 -293 -11 -140 -5 -452 10 -491 4
-14 10 94 14 267 3 159 11 318 17 354 14 80 54 155 100 186 25 18 30 24 16 24
-10 0 -40 -21 -66 -47z"/>
<path d="M9212 9515 c3 -3 59 -10 124 -16 249 -20 475 -58 712 -118 112 -29
149 -28 70 2 -129 48 -341 96 -541 122 -111 14 -377 21 -365 10z"/>
<path d="M9020 9361 c28 -17 1020 -208 1180 -226 37 -4 50 -3 40 3 -21 14
-345 80 -766 157 -365 67 -481 84 -454 66z"/>
<path d="M12710 9224 c0 -11 85 -144 92 -144 8 0 58 59 58 69 0 3 -34 23 -75
44 -41 20 -75 34 -75 31z"/>
<path d="M9290 9093 c0 -4 93 -26 206 -47 169 -31 415 -82 532 -111 12 -3 22
-1 22 4 0 20 -299 96 -510 130 -167 27 -250 35 -250 24z"/>
<path d="M11280 8926 c0 -2 17 -14 38 -26 484 -290 989 -537 1194 -585 34 -8
117 -19 183 -25 273 -24 345 -33 450 -60 122 -31 259 -82 378 -142 92 -46 126
-46 46 -1 -227 130 -469 201 -764 223 -77 6 -179 17 -227 25 -179 30 -485 166
-1030 458 -247 132 -268 142 -268 133z"/>
<path d="M1012 8573 c64 -93 169 -202 261 -271 78 -58 223 -135 317 -169 36
-12 63 -23 60 -24 -3 -1 -74 -13 -158 -28 l-153 -26 72 -105 c220 -322 431
-472 666 -474 40 -1 73 -3 73 -6 -1 -3 -49 -25 -108 -50 -89 -38 -106 -49
-104 -65 5 -28 127 -251 214 -389 225 -358 584 -834 982 -1305 l145 -172 16
-77 c9 -42 23 -97 30 -122 23 -78 17 -7 -10 115 -13 63 -27 143 -30 178 -40
428 -372 1326 -639 1726 -224 335 -552 710 -799 912 -249 205 -506 340 -777
409 -119 30 -118 30 -58 -57z"/>
<path d="M7621 8608 c7 -13 51 -88 99 -168 48 -80 122 -211 165 -292 77 -145
108 -188 80 -107 -46 129 -315 589 -346 589 -6 0 -5 -9 2 -22z"/>
<path d="M13500 8403 l0 -56 168 -171 c220 -225 333 -367 381 -478 51 -119 55
-457 8 -639 -44 -167 -108 -269 -199 -315 -69 -35 -185 -57 -279 -52 l-79 3 0
-1027 0 -1028 265 0 265 0 0 -346 0 -347 -37 7 c-21 4 -87 15 -148 25 -96 16
-770 201 -1322 363 l-182 53 -51 147 c-87 257 -228 586 -316 735 l-25 43 -58
-30 c-230 -116 -614 -235 -926 -288 -277 -47 -403 -56 -775 -56 -368 0 -477 7
-805 55 -354 51 -855 175 -1164 288 -47 17 -85 30 -86 28 -1 -1 -32 -53 -68
-114 -135 -229 -248 -480 -323 -718 -20 -66 -41 -124 -46 -129 -4 -6 -119 -18
-255 -28 -523 -37 -1037 -87 -1363 -134 -673 -96 -917 -220 -1027 -522 -37
-100 -53 -201 -53 -327 l0 -113 -689 -7 c-379 -4 -999 -4 -1377 0 -508 6 -685
5 -680 -4 5 -8 373 -11 1377 -11 753 0 1369 -2 1369 -4 0 -2 7 -40 15 -83 93
-489 530 -914 1220 -1186 172 -68 339 -118 521 -156 279 -58 214 -56 1608 -56
l1290 0 12 45 c7 25 45 171 85 325 39 154 73 281 73 282 1 1 83 -11 181 -28
99 -16 194 -32 211 -34 l31 -5 6 -173 c4 -94 7 -206 7 -249 l0 -76 103 -7
c153 -11 1981 1 2217 14 415 23 829 66 1035 107 598 120 1093 621 1154 1167 6
53 11 101 11 107 0 7 464 10 1484 10 979 0 1487 3 1491 10 4 7 -494 10 -1487
10 l-1493 0 -13 77 c-20 129 -103 274 -212 373 l-39 35 302 463 302 462 935 0
935 0 53 -83 c29 -45 227 -349 440 -675 418 -640 412 -632 488 -617 19 3 49
19 67 35 l32 28 3 656 2 656 170 0 170 0 0 1910 0 1910 -2455 0 -2455 0 0 -57z
m1570 -3767 c0 -6 -569 -878 -579 -889 -5 -5 -39 12 -77 36 -96 62 -124 75
-244 118 l-105 37 -3 351 -2 351 505 0 c278 0 505 -2 505 -4z m2970 -636 l0
-640 -27 -29 c-16 -16 -37 -32 -48 -35 -55 -16 -69 4 -510 681 -234 359 -425
655 -425 658 0 3 227 5 505 5 l505 0 0 -640z m-10270 48 c182 -25 273 -70 535
-263 256 -189 420 -298 481 -319 33 -12 104 -21 214 -27 91 -4 181 -11 200
-15 63 -11 131 -57 219 -150 l86 -91 364 34 c200 18 366 31 368 29 3 -2 7
-210 10 -462 6 -433 5 -457 -11 -451 -64 25 -734 147 -804 147 -21 0 -46 6
-57 14 -28 19 -427 230 -1000 529 -269 140 -564 296 -655 346 -91 50 -263 141
-383 202 l-218 110 7 37 c26 144 78 225 181 279 128 69 248 82 463 51z"/>
<path d="M6779 6729 c-93 -13 -212 -47 -300 -84 -82 -34 -165 -83 -157 -91 3
-2 54 17 114 42 124 52 248 88 379 109 50 8 94 15 98 15 5 0 5 5 2 10 -7 11
-55 11 -136 -1z"/>
<path d="M9661 5720 c19 -11 469 -57 639 -65 166 -8 138 8 -50 29 -358 39
-622 56 -589 36z"/>
<path d="M3494 5415 c0 -55 1 -76 3 -47 2 29 2 74 0 100 -2 26 -3 2 -3 -53z"/>
<path d="M3781 5374 c0 -11 3 -14 6 -6 3 7 2 16 -1 19 -3 4 -6 -2 -5 -13z"/>
<path d="M3761 5304 c0 -11 3 -14 6 -6 3 7 2 16 -1 19 -3 4 -6 -2 -5 -13z"/>
<path d="M2795 4791 c-269 -14 33 -21 859 -20 867 0 1125 8 801 22 -181 8
-1491 6 -1660 -2z"/>
</g>
</svg>
